<?xml version="1.0" encoding="utf-8"?>
<!-- Generator: Adobe Illustrator 26.0.1, SVG Export Plug-In . SVG Version: 6.00 Build 0)  -->
<svg version="1.1" id="Layer_1" xmlns="http://www.w3.org/2000/svg" xmlns:xlink="http://www.w3.org/1999/xlink" x="0px" y="0px"
	 viewBox="0 0 841.89 595.28" style="enable-background:new 0 0 841.89 595.28;" xml:space="preserve">
<style type="text/css">
	.st0{display:none;fill:#52757E;}
	.st1{display:none;}
	.st2{display:none;fill:#A5A5A5;}
	.st3{fill:#AC1F23;}
	.st4{fill:#259DCA;}
	.st5{fill:#010101;}
	.st6{fill:#259ECA;}
	.st7{fill:#269ECA;}
	.st8{fill:#279ECB;}
	.st9{fill:#FFFFFF;}
	.st10{fill:#5050DD;}
	.st11{fill:#4D4E4E;}
	.st12{fill:#FEFEFE;}
	.st13{fill:#FDFEFE;}
	.st14{fill:#C19A57;}
	.st15{fill:#F8EEA2;}
	.st16{fill:#D2B16B;}
	.st17{fill:#D0B16C;}
	.st18{fill:#DDC57E;}
	.st19{fill:#D6B972;}
	.st20{fill:#E6CF86;}
	.st21{fill:#D9C078;}
	.st22{fill:#D5BD79;}
	.st23{fill:#DCCB84;}
	.st24{fill:#E9E199;}
	.st25{fill:#CDA45E;}
	.st26{fill:#C0A66D;}
	.st27{fill:#AF9368;}
	.st28{fill:#CCA964;}
	.st29{fill:#EFFAFA;}
	.st30{fill:#F8EE9F;}
	.st31{fill:#F6EDA0;}
	.st32{fill:#B1955E;}
	.st33{fill:#CAB06D;}
	.st34{fill:#B89252;}
	.st35{fill:#EEDB90;}
	.st36{fill:#DBCA88;}
	.st37{fill:#F7E99F;}
	.st38{fill:#E1CA81;}
	.st39{fill:#D6B975;}
	.st40{fill:#CDAD66;}
	.st41{fill:#C7A15C;}
	.st42{fill:#E3DFA0;}
	.st43{fill:#EAE59F;}
	.st44{fill:#DCDCAA;}
	.st45{fill:#D6D79A;}
	.st46{fill:#EEEAA8;}
	.st47{fill:#B98E4C;}
	.st48{fill:#C09451;}
	.st49{fill:#C69C59;}
	.st50{fill:#C9A45F;}
	.st51{fill:#D6B973;}
	.st52{fill:#CDAE68;}
	.st53{fill:#D2B46E;}
	.st54{fill:#BE9452;}
	.st55{fill:#D3B16C;}
	.st56{fill:#C7A261;}
	.st57{fill:#DAC07A;}
	.st58{fill:#F6EC9F;}
	.st59{fill:#EBD88D;}
	.st60{fill:#E2CD86;}
	.st61{fill:#C8A868;}
	.st62{fill:#F0E195;}
	.st63{fill:#EDE195;}
	.st64{fill:#EFE496;}
	.st65{fill:#EBDB8F;}
	.st66{fill:#E6D389;}
	.st67{fill:#C09350;}
	.st68{fill:#BA8C4B;}
	.st69{fill:#C8A15E;}
	.st70{fill:#F5E89A;}
	.st71{fill:#E4E5AC;}
	.st72{fill:#CBAA65;}
	.st73{fill:#D9BD77;}
	.st74{fill:#D7B771;}
	.st75{fill:#DBBF77;}
	.st76{fill:#DCC078;}
	.st77{fill:#E1CB81;}
	.st78{fill:#EDDD91;}
	.st79{fill:#E8D58A;}
	.st80{fill:#DFC77D;}
	.st81{fill:#E8D88D;}
	.st82{fill:#E3CB83;}
	.st83{fill:#CDB173;}
	.st84{fill:#E5D38B;}
	.st85{fill:#F4EDA5;}
	.st86{fill:#B68E53;}
	.st87{fill:#BC9D62;}
	.st88{fill:#C19E5C;}
	.st89{fill:#ABA073;}
	.st90{fill:#BF9552;}
	.st91{fill:#B28B50;}
	.st92{fill:#C29C59;}
	.st93{fill:#F5E99C;}
	.st94{fill:#F3E497;}
	.st95{fill:#F5EBA0;}
	.st96{fill:#B58B50;}
	.st97{fill:#B68B4F;}
	.st98{fill:#B88E50;}
	.st99{fill:#C19754;}
	.st100{fill:#C4A061;}
	.st101{fill:#D1B675;}
	.st102{fill:#F0E396;}
	.st103{fill:#E4CD83;}
	.st104{fill:#C29855;}
	.st105{fill:#D6BA75;}
	.st106{fill:#D6CC90;}
	.st107{fill:#F2E69B;}
	.st108{fill:#E5DC98;}
	.st109{fill:#CFAB66;}
	.st110{fill:#D4B36D;}
	.st111{fill:#E3CF88;}
	.st112{fill:#DCC27A;}
	.st113{fill:#CFAE70;}
	.st114{fill:#DAD299;}
	.st115{fill:#E9D78A;}
	.st116{fill:#D8CE93;}
	.st117{fill:#D7BC75;}
	.st118{fill:#CAA45F;}
	.st119{fill:#D4B673;}
	.st120{fill:#CCB376;}
	.st121{fill:#EADD94;}
	.st122{fill:#F2E59A;}
	.st123{fill:#E5D58B;}
	.st124{fill:#EEE297;}
	.st125{fill:#D6C788;}
	.st126{fill:#DEC179;}
	.st127{fill:#DCC47F;}
	.st128{fill:#E3D08B;}
	.st129{fill:#E6D48B;}
	.st130{fill:#DCC37C;}
	.st131{fill:#D8C078;}
	.st132{fill:#CFBD7C;}
	.st133{fill:#C69E5C;}
	.st134{fill:#D5B974;}
	.st135{fill:#C29C5D;}
	.st136{fill:#CBAD6C;}
	.st137{fill:#CAAA64;}
	.st138{fill:#B9A77A;}
	.st139{fill:#EADB91;}
	.st140{fill:#ECDC93;}
	.st141{fill:#E0CA82;}
	.st142{fill:#E8D389;}
	.st143{fill:#DBC179;}
	.st144{fill:#D8D295;}
	.st145{fill:#EFE598;}
	.st146{fill:#C09251;}
	.st147{fill:#C5A05F;}
	.st148{fill:#BD9B59;}
	.st149{fill:#D0AF68;}
	.st150{fill:#D9BB76;}
	.st151{fill:#DDC37F;}
	.st152{fill:#D9BC75;}
	.st153{fill:#E2D791;}
	.st154{fill:#D6BE78;}
	.st155{fill:#CBA966;}
	.st156{fill:#C6AC6D;}
	.st157{fill:#D5B770;}
	.st158{fill:#CAA968;}
	.st159{fill:#CCB46F;}
</style>
<rect x="50.1" y="94.8" class="st0" width="788" height="455"/>
<g>
	<g>
		<path class="st12" d="M256.37,253.08c14.63-5.67,16.48,8.62,11.81,18.57c0.48-1.03,1.69-2.05,2.38-2.97
			c0.9-1.19,1.78-2.4,2.66-3.61c2.44-3.36,5.01-6.78,7.69-9.96c2.56-3.05,5.66-5.84,9.45-7.06c3.79-1.22,8.38-0.58,11.06,2.37
			c2.3,2.54,2.82,6.23,2.7,9.65c-0.66,19.35-17.44,35.21-18.63,54.54c-0.11,1.84,0.01,3.91,1.36,5.17c1.4,1.32,4.07,1.81,4.06,3.73
			c0,0.99-0.87,1.81-1.83,2.05s-1.97,0-2.9-0.33c-3.6-1.3-6.77-4-8.82-7.25c-2.29-3.63-2.78-7.47-1.65-11.57
			c0.12-0.44,0.26-0.89,0.39-1.33c4.79-15.61,13.07-30,17.56-45.71c0.41-1.44,0.54-3.42-0.84-3.98c-0.92-0.37-1.93,0.19-2.74,0.75
			c-3.23,2.22-6.22,4.79-8.88,7.67c-4.16,4.48-7.51,9.63-10.85,14.75c-5.76,8.86-11.55,17.77-15.62,27.52
			c-0.83,2-1.95,4.33-4.09,4.67c-2.03,0.32-3.88-1.53-4.32-3.53c-0.43-2,0.17-4.07,0.82-6.02c1.61-4.87,3.49-9.65,5.49-14.38
			c1.96-4.63,4.25-9.16,5.83-13.93c1.51-4.53,2.2-9.29,1.83-14.06c-0.01-0.14-0.03-0.31-0.15-0.38c-0.11-0.07-0.25-0.04-0.37-0.01
			c-7.37,1.85-11.94,8.27-15.46,14.52c-4.29,7.62-7.35,15.89-10.42,24.06c-2,5.34-3.94,10.66-6.46,15.78
			c-0.07,0.13-0.13,0.27-0.25,0.37c-0.11,0.09-0.24,0.14-0.38,0.18c-2.99,0.97-6.94,1.22-7.93-2.43c-0.82-3.01,0.12-6.5,0.92-9.41
			c1.25-4.54,2.98-8.95,4.77-13.3c2.03-4.93,4.2-9.81,6.34-14.7c1.96-4.49,3.92-8.99,5.61-13.59c1.16-3.16,2.45-6.58,2.58-9.98
			c0.01-0.18-0.01-2.27-0.26-2.25c10.06-0.63,8.28,13.59,5.11,19.23c-0.3,0.54-0.64,1.06-1.01,1.56c0.94-1.29,1.37-3.18,2.24-4.57
			c0.9-1.45,1.95-2.81,3.09-4.07C250.63,257.21,253.41,255,256.37,253.08z"/>
		<path class="st12" d="M341.76,266.8c0.67-0.1,1.44,0.1,2.07,0.26c0.89,0.22,1.73,0.58,2.25,1.18c0.71,0.8,0.73,1.8,0.56,2.72
			c-0.4,2.13-1.76,4.07-2.63,6.09c0.04-0.08,0.48-0.24,0.58-0.3c0.21-0.11,0.41-0.22,0.61-0.34c0.39-0.23,0.76-0.47,1.13-0.72
			c0.74-0.5,1.46-1.02,2.23-1.5c0.68-0.43,1.45-0.78,2.15-1.19c0.75-0.44,1.48-0.9,2.22-1.35c1.92-1.16,3.94-2.18,6.2-2.91
			c1.2-0.39,2.41-0.75,3.66-1.05c1.58-0.38,3.32-0.75,5-0.63c0.96,0.07,1.9,0.36,2.4,1.01c0.51,0.67,0.49,1.51,0.37,2.25
			c-0.18,1.06-0.61,2.09-1.09,3.09c-0.58,1.2-1.26,2.37-1.97,3.53c-0.73,1.2-1.5,2.38-2.27,3.56c-0.68,1.06-1.37,2.12-2,3.19
			c-0.45,0.78-0.92,1.59-1.15,2.42c-0.1,0.38-0.26,1,0.27,1.25c0.64,0.3,1.7-0.11,2.29-0.33c4.18-1.18,7.26-3.68,9.95-6.26
			c2.4-2.3,5.05-4.46,7.38-6.82c0.63-0.64,1.26-1.3,2.02-1.86c0.35-0.26,0.76-0.45,1.11-0.7c0.33-0.24,0.64-0.49,1.13-0.5
			c0.4-0.01,0.76,0.14,1.07,0.32c0.09,0.05,0.98,0.61,0.94,0.66c-6.76,7.54-14.68,15.01-24.91,20.1
			c-15.97,3.95-14.79-7.46-9.61-14.99c-7.89,3.82-14.02,10.16-21.03,14.98c-9.37,3.32-8.85-8.16-5.08-11.65
			c2.54-2.39,4.41-5.13,6.62-7.68c1.89-2.18,4.06-4.25,6.98-5.7C341.41,266.88,341.58,266.83,341.76,266.8z"/>
		<path class="st12" d="M331.47,274.06c0.86-1.15,1.82-2.39,2.98-2.97c0.84-0.47,1.9-0.32,2.09,0.69c0.3,1.56-1.97,3.98-2.81,5.18
			c-3.13,4.46-6.91,8.51-10.99,12.11c-3.47,3.06-7.37,6.06-11.78,7.62c-2.17,0.77-4.65,1.19-6.86,0.34
			c-1.46-0.56-2.77-1.68-3.65-2.96c-1-1.44-1.11-2.74-0.99-4.49c0.37-5.61,2.59-11.63,5.31-16.51c0.94-1.69,2.06-3.85,3.52-5.15
			c1.54-1.37,4.14-0.88,5.81-0.04c0.88,0.45,1.74,1.1,2.22,1.98c0.72,1.34,0.01,2.67-0.66,3.89c-1.88,3.42-3.48,7-4.79,10.68
			c-0.63,1.77-2.73,6.19,0.24,7.01c2.76,0.77,6.58-2.32,8.59-3.79c2.7-1.97,4.63-4.67,6.68-7.27c1.36-1.72,2.74-3.43,4.15-5.11
			C330.83,274.91,331.14,274.49,331.47,274.06z"/>
		<path class="st13" d="M323.35,261.27c-0.98,2.4-3.22,4.1-5.83,4.26c-3.17,0.2-5.62-1.66-5.15-5.03c0.53-3.82,3.17-7.07,7.3-6.7
			c3.63,0.33,4.89,3.82,3.84,7.01C323.46,260.97,323.41,261.12,323.35,261.27z"/>
		<path class="st14" d="M71.1,331.8c-1.52-2.42-3.86-2.63,0.28-4.74c0.4-8.77,1.5-18.54-0.01-27.31c-0.64-1,0.39-2.34,1.4-1.68
			c3.53,2.7,2.89,23.9,3.42,29.84c-0.24,2.6,2.24,10.66-2.64,6.74C72.57,334.15,70.94,332.96,71.1,331.8z"/>
		<path class="st15" d="M155.84,301.81c-0.19,5.5,3.6,23.32-2.88,24.47c-2.62-8.61,3.02-21.27-2.84-28.16
			c-0.45-2.69,4.71-3.56,5.65-0.95c0,0-0.01-0.01-0.01-0.01C156.65,298.69,156.68,300.24,155.84,301.81z"/>
		<path class="st16" d="M80.97,324.36c4.19,2.71,4.49,7.63,3.43,12.26c-1.09,2.71,1.92,6.66-1.65,7.92
			c-4.77-1.67-3.16-8.48-2.7-12.45C80.21,330.56,77.53,320.28,80.97,324.36z"/>
		<path class="st17" d="M90.73,269.86c-3.33-8.86,6.46-16.13,4.5-3.73c-0.18,0.74,0.73,1.3,0.31,2.06
			c-0.45,0.53-0.71,1.08-0.82,1.67c-0.18,3.11,1.94,9.72-3.34,8.78c-1.11-1.08,0.27-2.57,0.21-3.85
			C92.18,272.98,90.01,271.54,90.73,269.86z"/>
		<path class="st18" d="M88.72,313.54c1.64,2.46,6.51,4.52,3.34,7.37c-0.52,3.26,1.2,9.34-3.87,4.82c-1.35-2.75-3.15-5.11-1.55-8.23
			C84.82,315.24,86.51,309.22,88.72,313.54z"/>
		<path class="st19" d="M82.49,344.13c1.17-0.98,0.98-2.23,0.81-3.57c-0.26-4.54,1.07-8.93,0.24-13.43
			c2.16,2.27,5.29,2.09,3.47,6.16c-0.78,3.03,1.96,18.33-4,12.86C82.49,345.7,82.16,345.13,82.49,344.13z"/>
		<path class="st20" d="M94.18,331.03c-4.34-2.2-2.98-5.52-3.57-9.46c-0.81-2.09,1.19-2.06,2.43-2.61c3.4,1.21,2.67,5.68,2.08,8.54
			C95.04,328.8,96.45,331.05,94.18,331.03z"/>
		<path class="st21" d="M128.02,258.99c0.94,0.85,2.9,1.03,3.02,2.46c-0.75,1.83-0.53,4.08-2.49,5.27
			C122.76,270.03,122.14,255.5,128.02,258.99z"/>
		<path class="st22" d="M86.4,313.12c0.08,1.35,0.33,2.5,1.32,3.51c-0.96,2.59,0.04,5.15-0.16,7.79c-2.45-1.53-3.99-4.7-4.2-7.42
			C83.66,315.99,85.31,313.25,86.4,313.12z"/>
		<path class="st23" d="M98.85,258.07c6.43-7.34,1.02,18.07-2.31,0.29C97.28,258,98.09,258.27,98.85,258.07z"/>
		<path class="st24" d="M103.95,254.61c3.52-0.23,7.51,0.14,2.97,3.67c-1.48-0.02-4.47,1.47-4.18-1.15
			C102.94,256.33,102.76,254.49,103.95,254.61z"/>
		<path class="st25" d="M89.09,309.61c-0.99-1.09-1.52-3.58-0.45-4.68C93.18,302.98,93.6,314.32,89.09,309.61z"/>
		<path class="st26" d="M88.36,268.36c1.77,0.36,1.28,5.47,3.4,3.47c2.03,1.98-1.94,2.34-2.8,1.01
			C88.32,271.49,86.37,269.35,88.36,268.36z"/>
		<path class="st27" d="M87.55,269.05c0.69,2.09-1.4,2.89-1.98,4.48c-0.41,1.26,0.38,3.12-1.14,3.78
			C83.27,274.39,84.53,269.92,87.55,269.05z"/>
		<path class="st28" d="M78.22,321.24c0.3,2.34-2.9,0.77-0.8-0.3c0-0.08-0.01-0.15,0-0.23C77.69,320.88,77.95,321.06,78.22,321.24z"
			/>
		<path class="st12" d="M498.41,282.55c0.28-0.34,0.56-0.67,0.84-1.01C501.8,282.9,498.7,285.58,498.41,282.55z"/>
		<path class="st29" d="M499.96,284.66c-0.25,1.1-0.84,1.59-1.85,2.02C498.12,285.44,498.66,284.7,499.96,284.66z"/>
		<path class="st29" d="M496.06,285.02c0.47-0.6,0.89-1.25,1.58-1.64C497.97,284.73,497.17,285,496.06,285.02z"/>
		<g>
			<path class="st9" d="M459.81,260.94c0,0,0.01,0.01,0.01,0.01c0.01,0,0.02,0,0.03,0C459.84,260.95,459.82,260.94,459.81,260.94z"
				/>
			<path class="st9" d="M541.51,273.89c-1.36,2.36-3.06,4.24-4.37,6.58c-5.86,6.91-12.18,17.77-21.99,18.47
				c-0.08-0.02-0.16-0.03-0.24-0.07c-1.29-0.58-1.51-2.29-1.47-3.7c0.19-6.71,2.81-12.42,5.68-18.36c1.93-4,2.53-8.6,5.57-12.03
				c0.88-0.99,1.98-1.86,3.27-2.14c0.86-0.19,1.81-0.07,2.58,0.38c0.94,0.55,1.51,1.83,1.73,2.85c0.06,0.27,0.09,0.54,0.16,0.8
				c0.19,0.7,0.88,1.29,1.63,1.21c0.34-0.04,0.64-0.25,0.91-0.47c1.01-0.86,2.17-1.86,2.74-3.07c0.46-0.98,0.64-2.1,0.48-3.17
				c-0.43-2.94-3.24-5.33-6.21-5.3c-0.91,0.01-2.18-0.05-2.27-0.95c-0.02-0.25,0.07-0.49,0.17-0.72c0.73-1.72,1.88-3.26,2.37-5.06
				c0.4-1.45,0.4-3.3-0.82-4.37c-0.63-0.55-1.42-0.88-2.2-1.16c-1.35-0.5-3.45-2.13-4.81-1c-1.1,0.91-1.58,2.45-2.25,3.66
				c-1.09,1.98-2.05,4.02-2.86,6.12c-1.18,3.03-3.02,5.87-6.74,5.54c-1.9-0.17-3.71-1.61-4.03-3.49c-0.11-0.65-0.05-1.31-0.14-1.96
				c-0.23-1.6-1.94-2.35-2.88-0.85c-0.89,1.42-0.79,3.88-0.49,5.44c0.17,0.88,0.48,1.75,1.01,2.47c1.59,2.18,5.02,2.87,5.8,5.45
				c0.56,1.86-0.55,3.84-1.56,5.34c-0.14,0.2-0.29,0.41-0.5,0.53c-0.46,0.26-0.97,0.04-1.46,0.06c-0.51,0.01-0.94,0.22-1.3,0.58
				c-0.36,0.35-0.61,0.79-0.89,1.2c-0.79,1.18-1.8,2.19-2.75,3.24c-1.94,2.14-3.67,4.44-5.58,6.61c-1.95,2.22-4.15,4.05-6.43,5.89
				c-2.1,1.69-4.14,3.45-6.68,4.47c-0.47,0.19-0.95,0.35-1.44,0.47c-1.43,0.36-2.94,0.19-3.87-1.05c-0.85-1.14-1.07-2.68-1.14-4.06
				c-0.02-0.41-0.02-0.82-0.01-1.23c0.01-0.5-0.05-1.11,0.16-1.57c0.1-0.23,0.28-0.43,0.46-0.61c1.91-1.95,4.47-3.02,6.94-4.08
				c2.91-1.25,6.31-2.43,8.46-4.88c2.15-2.45,1.43-5.73,0.15-8.41c-0.21-0.44-0.44-0.89-0.83-1.18c-0.67-0.51-1.56-0.42-2.35-0.51
				c-0.93-0.11-1.84-0.23-2.78-0.23c-2.06-0.02-4.11,0.28-6.06,0.96c-2.01,0.69-3.91,1.7-5.6,2.98c-1.31,0.99-2.38,2.1-3.35,3.41
				c-1.02,1.36-2.48,2.3-3.79,3.38c-3.18,2.6-5.94,6-9.7,7.81c-1.05,0.51-2.4,0.75-3.4,0.01c-1.05-0.77-1.08-2.1-1.38-3.26
				c-0.42-1.65-1.52-3-2.11-4.57c-0.65-1.76-0.57-3.75-0.02-5.53c0.46-1.49,1.22-2.89,2.22-4.09c0.51-0.61,1.07-1.17,1.69-1.67
				c0.42-0.34,1.31-1.21,1.89-1.17c0.13,0.01,0.25,0.07,0.36,0.14c0.72,0.38,2.79,1.33,3.11-0.02c0.22-0.92-0.68-1.84-1.36-2.33
				c-1.31-0.94-2.75-0.72-4.25-0.58c-2.92,0.28-5.75,1.66-7.7,3.86c-2.02,2.29-3.06,5.26-4.56,7.92c-1.26,2.24-2.85,4.28-4.43,6.3
				c-4.38,5.61-8.82,11.28-14.46,15.61c-2.02,1.55-4.71,2.97-6.99,1.85c-1.68-0.82-2.49-2.76-2.87-4.59
				c-1.43-7.02,1.68-14.29,6.18-19.87c4.5-5.58,10.33-9.9,15.56-14.81c5.23-4.9,10.04-10.73,11.56-17.73
				c0.59-2.72,0.53-5.9-1.44-7.86c-1.5-1.49-3.77-1.91-5.87-1.74c-4.82,0.39-9.01,3.43-12.45,6.83
				c-7.42,7.34-12.49,16.66-17.45,25.85c-5.92-0.32-11.81,1.79-16.68,5.18c-4.87,3.39-8.78,7.99-12.07,12.93
				c-2.72,4.09-5.1,8.64-5.36,13.54c-0.08,1.5,0.11,3.16,1.2,4.19c1.52,1.44,3.98,0.99,5.94,0.26c7.19-2.68,13.18-7.76,19.02-12.75
				c-0.05,3.25-0.08,6.57,0.85,9.68c0.93,3.12,3,6.07,6.03,7.24c3.41,1.32,7.27,0.18,10.56-1.43c9.24-4.52,16.32-12.53,21.99-21.12
				c0.9,2.79,1.73,5.95,0.35,8.53c-0.89,1.67-2.55,2.79-4.22,3.68c-2.97,1.59-6.26,2.78-8.61,5.2c-2.35,2.42-3.33,6.65-1,9.08
				c1.91,2,5.1,1.93,7.82,1.47c4.81-0.81,9.74-2.57,12.86-6.33c3.61-4.35,4.18-12.04,9.93-14.35c1.71-0.31,5.69-4.25,5.09-0.43
				c-0.51,3.3-0.45,6.76,1.93,9.37c2.03,2.23,5.1,3.16,8.03,3.37c3.37,0.24,6.81-0.39,9.94-1.63c1.54-0.61,3.02-1.39,4.37-2.35
				c0.64-0.46,1.24-0.96,1.81-1.5c0.99-0.96,2.09-1.78,3.04-2.79c0.91-0.98,1.75-2.01,2.62-3.03c1.77-2.07,3.65-4.05,5.53-6.03
				c0.53-0.56,1.06-1.11,1.59-1.67c0.38-0.4,1.12-0.93,1.28-1.46c-0.86,1.99-1.77,3.98-2.33,6.08c-0.62,2.28-0.97,4.64-0.96,7
				c0.03,5.02,2.62,10.37,7.34,12.07c4.63,1.67,9.57-0.55,13.13-3.53c2.54-2.12,4.66-4.67,6.98-7.02c2.33-2.36,4.74-4.64,6.91-7.15
				c2.85-3.29,5.49-6.74,8.09-10.22C546.44,274.87,543.15,271.58,541.51,273.89z M478.71,276.27c9.28-15.43,21.68-3.26,1.49,1.86
				c0.01,0,0.02-0.01,0.02-0.02C478.64,278.13,478.21,277.8,478.71,276.27z M424.24,258.72c23.08-42.43,32.09-17.33-3.77,10.38
				C421.31,265.45,422.67,262.07,424.24,258.72z M397.71,286.45c-3,1.54-8.19,8.75-11.17,6.94c-1.47-5.29,21.36-31.61,23.12-23.96
				C408.36,276.99,403.75,282.08,397.71,286.45z M438.26,303.19c-4.09,3.21-7-0.58-3.6-4.02c2.57-2.74,6.46-3.7,9.66-5.54
				C443.19,297.43,441.47,300.79,438.26,303.19z"/>
		</g>
		<path class="st30" d="M104.36,331.82c2.39,9.89,1.05,21.2,0.75,31.09c-6.17,1.35-3.66-8.19-3.87-12.24
			C102.21,348.01,100.92,328.58,104.36,331.82z"/>
		<path class="st31" d="M110.19,295.26c0.35,6.2,1.32,13.84-0.46,19.8c-4.96,4.24-4.16-1.28-3.21-4.68
			c0.66-4.36-0.13-8.75-0.17-13.04C107.41,296.54,108.84,295.59,110.19,295.26z"/>
		<path class="st32" d="M119.95,318.21c-8.52,1.61-8.12-8.07-7.72-13.86c-0.07-1.82-0.7-12.82,2.23-7.22
			c-1.45,4.99-0.36,11.13-0.43,16.39c0.5,1.06,2.2-0.19,3.1-0.1c0.88,0.04,2.58,0.08,2.21,1.37
			C118.86,316.03,120.08,316.97,119.95,318.21z"/>
		<path class="st33" d="M88.73,308.11c-3.5-4.03,5.43-6.04,5.54-2.06c-0.72,2.9-0.08,3.39,2.28,4.75c-0.01,1.04,1.7,1.55,0.71,2.74
			c-2.89-0.7-6.54-0.6-7.82-3.91C95.21,311.46,87.83,300.42,88.73,308.11z"/>
		<path class="st34" d="M86.4,372.09c-2.22-0.91-0.79-4.1-1.16-5.98c0,0-0.01,0-0.01,0c1.34-1.15,6.1-0.04,4.61,2.4
			C89.64,370.79,89.1,372.36,86.4,372.09z"/>
		<path class="st35" d="M105.47,371.87c-5.9,0.07-6.32,0.43-6.21-5.75C104.84,365.61,105.73,366.29,105.47,371.87z"/>
		<path class="st36" d="M97.26,313.54c-0.19-1-1.41-1.34-1.51-2.39c3.29-1.7,7.5,2.83,7.69,5.67
			C101.31,318.67,97.96,315.81,97.26,313.54z"/>
		<path class="st37" d="M105.47,371.87c-3.57-0.45,1.34-5.06-2.7-5.76c6.43-0.9,4.57,0.81,4.65,5.77
			C106.77,371.87,106.12,371.87,105.47,371.87z"/>
		<path class="st38" d="M99.26,366.12c3.5,1.07-1.5,5.47,3.47,5.75c-1.8,0.03-5.73,0.09-6.41-1.06
			C95.46,369.66,96.12,364.67,99.26,366.12z"/>
		<path class="st39" d="M96.92,366.12c0.79,2.5-0.87,5.88,3.06,5.74c-4.57,0.64-8.08-0.4-6.56-5.75
			C94.58,365.95,95.75,365.92,96.92,366.12z"/>
		<path class="st40" d="M93.42,366.11c0.75,0.51,1.23,1.01,0.87,2c-0.44,1.23,0.51,2.51-0.06,3.74c-6.42,0.75-2.31-1.73-3.92-5.73
			C91.34,365.96,92.38,365.94,93.42,366.11z"/>
		<path class="st41" d="M90.31,366.12c2.7,1.69,1.78,6.25-1.58,5.71c-0.1-1.53-0.5-3.06,0.5-4.43c0.46-0.62-0.32-0.83-0.49-1.28
			C89.26,366.13,89.78,366.12,90.31,366.12z"/>
		<path class="st42" d="M101.6,317.39c1.08-0.33,1.38-0.96,0.75-1.94c2.06-0.58,4.01,0.31,5.97,0.88
			C106.3,318.03,104.03,318.16,101.6,317.39z"/>
		<path class="st43" d="M104.36,331.82c-0.47-0.71-1.31-0.79-1.91-1.22c-0.83-1.07-0.82-2.66-2.48-2.86
			c-1.16-0.61-2.64-2.21-1.27-3.4C101.49,325.47,103.55,328.84,104.36,331.82z"/>
		<path class="st44" d="M101.61,362.58c0.79,0.05,1.61-0.05,2.32,0.4c-5.44-0.02-10.87-0.03-16.31-0.05
			C87.07,360.74,100.66,361.15,101.61,362.58z"/>
		<path class="st45" d="M94.2,320.14c-0.39-0.39-0.77-0.79-1.16-1.18c0.12-0.13,0.24-0.26,0.37-0.39c1.71,1.41,3.22,3.02,4.71,4.65
			C95.99,325,95.37,321.23,94.2,320.14z"/>
		<path class="st42" d="M108.32,316.34c0.11-0.81,0.69-1.12,1.4-1.28C109.43,315.67,108.94,316.07,108.32,316.34z"/>
		<path class="st45" d="M99.27,324.41c-0.89,0.23-1.82-0.24-1.16-1.18C98.5,323.62,98.89,324.01,99.27,324.41z"/>
		<path class="st46" d="M140.07,282.38c1.73,3.35-0.1,6.54-0.39,9.83c0.02,1.19,1.35,2.12,0.93,3.35c-0.37,0.72,0.03,1.43-0.09,2.2
			c-0.53,5.32-4.8,4.21-1.67-0.5c-2.06,2.06-1.86-1.63-2.08-2.94c0.11-1.4-1.34-2.74-1.01-4.04c1.41-1.83,2.13-3.98,1.78-6.3
			c0-1.22-1.79-2.15-1.05-3.35C138.09,278.2,139.29,280.85,140.07,282.38z"/>
		<path class="st47" d="M119.95,362.75c-2.71,0.38-3.26,0.25-3.05-2.55c0.53-7.43-0.34-14.85-0.09-22.28
			c0.21-2.71,0.95-12.37,4.43-10.37c-0.6,2.99-0.26,5.73,0.63,8.71C120.6,342.72,124,359.2,119.95,362.75z"/>
		<path class="st48" d="M119.95,362.75c1.86-8.63,0.28-18.08,0.81-26.97c-0.71-2.33-2.1-5.02-0.48-7.37
			c0.53-1.03-0.41-2.58,1.22-3.08c5.01,3.53,2,12.18,2.93,17.63C123.01,347.81,128.25,365.26,119.95,362.75z"/>
		<path class="st49" d="M123.26,362.78c-0.15-0.12-0.29-0.24-0.44-0.36c1.62-10.92,0.82-22.95,0.09-34.18
			c-2.34-2.87-0.53-5.81,2.88-5.09c3.37,6.53-0.07,15.05,0.51,22.15c0.3,5.06-0.42,10.26,0.39,15.24
			C127.44,362.78,124.92,363.29,123.26,362.78z"/>
		<path class="st50" d="M126,362.79c-1.39-8.39-1.24-19.98,0.55-29.02c3.94-0.64,3.49,3.26,2.91,5.84c0.1,6.9-0.18,13.85,0.12,20.73
			c0.15,1.21,2.28,1.18,2.32,2.52C129.93,362.98,127.96,363.07,126,362.79z"/>
		<path class="st51" d="M131.9,362.86c-0.47-0.1-0.94-0.2-1.41-0.3c-0.12-0.69,0.34-0.87,0.88-1c3.5-1.43,0.7-6.98,1.13-9.91
			c0.1-5.88,2.09-13.21-1.13-17.8c1.74-1.11,3.34-4.1,5.22-1.4c2.27,2.1,0.54,4.57-0.07,6.87c0.29,3.99,2.17,8.03-0.64,11.52
			C133.71,354.37,138.05,364.14,131.9,362.86z"/>
		<path class="st52" d="M133.08,325.56c-3.75,4.27-4.91,6.03-4.72-0.95c0.05-1.77-0.01-3.46-1.36-4.8c0.91-1.45,3.51-5.05,5.18-3.18
			C133.88,319.42,133.5,322.59,133.08,325.56z"/>
		<path class="st53" d="M133.08,325.56c-3.16-0.85,1.71-2.64-1.72-5.39c2.04-1.62-0.58-2.71-0.51-4.29
			C135.44,308.93,136.83,323.07,133.08,325.56z"/>
		<path class="st54" d="M115.7,372.05c-2.54-4.92-0.26-7.66,4.71-5.03C120.42,371.06,120.52,372.89,115.7,372.05z"/>
		<path class="st55" d="M121.48,366.13c4.71-1.21,5.87,2.27,4.13,6.03C121.45,372.51,119.06,370.32,121.48,366.13z"/>
		<path class="st56" d="M121.48,366.13c0.66,2.21-1.19,5.42,2.32,5.71c-1.84,0.43-3.65,1.18-5.44,0.02
			c1.44-0.47,0.61-1.81,0.81-2.85c0.7-1.62-0.12-2.39-1.57-2.88C118.9,365.99,120.19,365.94,121.48,366.13z"/>
		<path class="st57" d="M125.76,371.84c-2.32-0.86,1.36-3.76-1.16-5.74c7.51-0.38,2.51,2.42,4.72,5.46
			C129.7,372.4,126.18,372.63,125.76,371.84z"/>
		<path class="st58" d="M133.18,366.11c3.92-0.39,3.99-0.46,3.94,3.49c0.63,2.3-1.41,3.25-3.27,2.15c-0.55-1.08,0.38-2.21-0.16-3.41
			C133.66,367.56,132.3,366.92,133.18,366.11z"/>
		<path class="st59" d="M130.05,366.1c3.54-0.64,5.23,3.78,2.27,5.82C128.63,373.15,127.62,368,130.05,366.1z"/>
		<path class="st60" d="M130.05,366.1c0.36,2.25-1.56,6.26,2.34,5.45c0.82-0.82,1.48,0.06,2.33,0.33c-2.65,0.72-5.3,0.18-7.82-0.79
			c1.37-1.64,1.84-3.72,0.04-4.97C127.98,365.97,129.01,365.9,130.05,366.1z"/>
		<path class="st61" d="M123.02,317.01c-2.02,2.69-6.41,0.1-3.03-2.28C121.46,313.22,124.7,314.83,123.02,317.01z"/>
		<path class="st62" d="M133.18,366.89c-0.64-0.02-1.18-0.23-1.56-0.76c0.52,0,1.04-0.01,1.56-0.01
			C133.18,366.37,133.18,366.63,133.18,366.89z"/>
		<path class="st63" d="M137.73,280.03c-1.44,2.07,0.12,3.69-0.08,5.93c-0.79,4.91-3.76,4.5-3.84-0.43
			c-1.36-2.61,0.15-5.02-0.23-7.58c-0.15-1.89-3.01-3.1-1.59-4.94c0.5-5.85,2.46-5.44,5.86-1.19
			C140.44,273.67,139.35,277.85,137.73,280.03z"/>
		<path class="st64" d="M147.53,316.51c2.64-5.98-1.81-14.13,2.79-18.99c3.83,4.81,0.72,12.27,1.72,18.05
			c-0.23,6.02,1.74,13.26-3.31,17.79c-2.7-2.27-0.5-8.04-1.43-11.31C145.28,320.16,147.2,318.52,147.53,316.51z"/>
		<path class="st65" d="M147.53,316.51c0.41,2.78-1.95,3.32,1.77,4.52c-1.85,4.07-0.59,8.44-0.49,12.75
			c-6.67,10-3.19-8.08-4.4-11.51C144.17,320.12,146.62,318.37,147.53,316.51z"/>
		<path class="st66" d="M144.84,320.44c0.17,0.76-0.03,1.54,0.94,1.89c0.8,2.17-0.55,5.45-0.22,8.01c1.71,6.13-3.3,15.24-3.96,3.75
			c-0.21-3.41,0.67-6.95,0.36-10.31C143.24,322.95,143.69,321.3,144.84,320.44z"/>
		<path class="st67" d="M70.32,297.55c6.56,6.43,0.72,20.28,2.53,29.17c0.65,7.99-5.12,2.61-4.15-2.27
			c-0.39-8.55,0.74-17.06,0.36-25.56C69.1,298,69.16,297.2,70.32,297.55z"/>
		<path class="st68" d="M70.32,297.55c-0.95,10-0.03,21.42-1.04,31.13C66.69,326.48,64.07,292.82,70.32,297.55z"/>
		<path class="st69" d="M77.42,320.93c-0.54,0.84-0.02,1.31,0.81,0.75c0.74,2.21,2.34,19.05-2.74,13.95
			c0.75-1.51-0.12-2.73-0.52-4.12c0.16-1.37,0.68-2.8,0.59-4.2c0.31-1.66-1.12-3.51-0.53-5c0.75-0.74,0.9-1.43,0.78-2.12
			C73.42,314.77,76.23,318.56,77.42,320.93z"/>
		<path class="st70" d="M150.79,330.81c-0.23-0.39-1.28-0.19-0.56-0.99c2.23-9.97,0.6-21.49,0.49-31.9
			c5.3,0.39,1.83,12.27,2.73,16.32C153.01,319.91,155.24,326.38,150.79,330.81z"/>
		<path class="st71" d="M151.17,330.42c0.12-1.69,1.56-2.67,2.28-4.06c0.17,0.04,0.34,0.07,0.5,0.11
			C153.66,327.97,152.36,329.53,151.17,330.42z"/>
		<path class="st71" d="M154.67,324.79c0.03,0.67-0.25,1.21-0.72,1.67C153.85,325.76,154.07,325.19,154.67,324.79z"/>
		<path class="st28" d="M76.27,336.48c4.19-2.95-0.61-10.65,2.3-14.39c4.22,4.8,1.84,13.1,1.58,19.09
			C78.55,339.87,77.46,338.13,76.27,336.48z"/>
		<path class="st72" d="M89.91,272.97c0.87-0.05,1.82,0.21,2.34-0.76c0.76,2.18-0.29,4.15-0.78,6.22c5.98-0.57,2.77,3.69,2.18,7.48
			c-0.07,0.81,0.6,1.73-0.28,2.44c-1.55,2.34,1.07,5.03-0.41,7.48c-2.32,1.6-0.13,2.81,1.03,4.11c1.84,3.2-2.57,5.2-5.11,3.98
			c-2-2.07-0.1-5.24-0.24-7.42c-1.08-2.34-5.01-4.62,0.72-5.01c2.98-2.8-1.54-6.94,0.3-9.86c0.62-2.08,0.49-4.38,0.38-6.46
			C89.68,274.56,88.41,272.95,89.91,272.97z"/>
		<path class="st73" d="M99.18,264.39c-1.57,1.98-2.55,2.3-4.97,1.57c1.64-2.14-0.37-4.08-0.43-6.22c1.23-1.23,3.3-1.41,4.47-0.12
			C99.07,260.69,98.19,262.99,99.18,264.39z"/>
		<path class="st74" d="M96.89,278.43c-2.77-0.2-3.36-1.72-2.94-4.3c0.41-2.18-1.63-5.29,1.43-6.24c2.91,0.7,1.02,3.51,1.28,5.65
			C96.22,275.09,98.19,277.29,96.89,278.43z"/>
		<path class="st26" d="M92.17,278.04c0.04,0.38,0.08,0.77,0.11,1.15c-0.41-0.11-0.68-0.37-0.82-0.77
			C91.7,278.3,91.94,278.17,92.17,278.04z"/>
		<path class="st75" d="M85.33,348.15c-0.17-0.38-0.33-0.76-0.5-1.15c2.76-4.09-0.75-11.63,2.32-15.97c4.61,3.61,1.57,9.3,1.8,14.15
			c-0.56,2.84,1.17,7-1.43,8.93C86.95,352.06,86.69,349.9,85.33,348.15z"/>
		<path class="st76" d="M137.74,347.01c-2.12-0.06-1.85-5.75-2.24-7.61c-0.09-2.35,2.87-4.42,0.18-6.27
			c-3.25-2.65,3.26-7.72,5.17-4.3c0.62,3.81-1.18,9.1-0.24,13.25C141.17,344.53,138.95,345.34,137.74,347.01z"/>
		<path class="st77" d="M140.13,343.9c-1.85-4.41,0.44-9.33-0.78-13.47c-0.92-1.08-0.14-1.19,0.79-1.19
			c-0.26-1.02-1.34-0.68-1.88-1.29c1.18-1.46,1.81-3.43,3.9-3.92c2.4,4.65-1.35,10.95,1.51,15.58c-0.54,1.42-1.95,2.27-2.64,3.53
			C140.86,343.6,140.85,344.16,140.13,343.9z"/>
		<path class="st78" d="M98,323.34c3.63,8.13,0.1,18.04,1.48,26.89c-0.83,4.51,2.75,13.88-4.87,12.34
			C95.28,357.76,93.34,320.6,98,323.34z"/>
		<path class="st79" d="M94.97,334.15c1.14,0.75,1.56,1.6,0.93,2.92c-0.57,7.82,0.27,15.88-0.31,23.73
			c-0.63,3.13-5.41,2.16-3.75-1.19C93.25,353.14,88,335.22,94.97,334.15z"/>
		<path class="st80" d="M87.52,354.11c0.49-6.29,0.37-12.72,1.69-18.86c0.23-1.27-1.8-2.15-1.27-3.43c1.3,1.06,2.2,2.6,3.91,3.1
			c-0.1,0.46-0.26,0.92-0.22,1.4c-1.23,4.81,3.93,28.88-3.99,25.94C87.6,359.54,87.56,356.83,87.52,354.11z"/>
		<path class="st81" d="M96.53,322.86c0.54,3.47,0.89,6.91-0.8,10.17c-0.52-0.67-1.04-1.33-1.56-2c0.21-0.26,0.69-0.62,0.46-0.99
			c-1.66-3.19,0.88-6.55-0.45-9.9C95.24,320.82,96.02,321.72,96.53,322.86z"/>
		<path class="st82" d="M132.69,267.45c-0.29,1.24-3.13,7.18-0.02,4.35c1.41,1.24-0.32,1.73-0.65,2.71
			c1.09,2.13,1.73,26.56-3.19,18.76c1.92-2.72-1.86-4.5-0.62-6.96c1.15-1.02-0.23-1.47-0.55-2.26c0.06-1.2-0.95-2.52-0.52-3.57
			c2.33-3.32,0.56-8.29,0.42-12.48c1.65-1.95,1.07-5.09,3.24-6.74C132.44,263.01,132.82,265.15,132.69,267.45z"/>
		<path class="st83" d="M125.32,266c-2.74-2.01-5.09-6.73-3.26-9.54c1.17,0.41,1.38,2.12,2.64,2.07c0.74,0.13,1.57,0.07,2.21,0.4
			C123.57,259.45,125.74,263.63,125.32,266z"/>
		<path class="st84" d="M103.62,258.24c-0.65,0.8-1.74,1.17-2.11,2.22c-1.56-2.42-0.6-7.12,2.67-4.83
			C104.55,256.38,103.2,257.31,103.62,258.24z"/>
		<path class="st85" d="M108.36,258.6c-0.45-0.5-2.27-0.91-1.6-1.68c7.2-6.13,2.51,17.64,3.74,21.52c-1.28,0.57-1.52-0.71-2.23-1.3
			c-2.29-2.69-0.23-6.15-0.6-8.92c-1.7-2.18-1.86-6.98,0.21-8.71C108.25,259.38,108.55,259.2,108.36,258.6z"/>
		<path class="st86" d="M82.9,289.34c-0.89-8.86,3.46-1,3.89,2.47c-2.5,3.38,0.23,6.11,0.25,9.51c-1.86,3.02-5.14-3.67-4.39-5.83
			C82.5,293.2,85.52,291.16,82.9,289.34z"/>
		<path class="st87" d="M119.14,258.19c-1.55-0.55-3.1-0.76-4.66-0.04C112.16,252.4,125.15,255.01,119.14,258.19z"/>
		<path class="st88" d="M89.09,303.33c-1.12,0.08-2.49-0.08-3.15-1.06c1.11-0.48-1.15-3.5,2.77-2.01
			C88.83,301.28,88.96,302.3,89.09,303.33z"/>
		<path class="st89" d="M119.96,255.47c-0.13-0.14-0.26-0.27-0.39-0.41c1.03,0.15,2.26,0.56,2.72,1.52
			C120.89,257.21,120.59,256.4,119.96,255.47z"/>
		<path class="st90" d="M84.42,277.31c-0.61-1.91,1.4-8.58,2.88-3.92c-1.03,3.69,2.8,12.75-1.28,14.05
			c-2.36-0.95-0.23-4.15-2.01-5.71C84.27,280.42,85.08,278.95,84.42,277.31z"/>
		<path class="st91" d="M84.81,279.97c-0.99,1.46,0.84,1.73,1.19,2.75c-0.62,0.24-0.78,0.83-0.96,1.41c-0.03,1.1-1.48,1.2-1.69,2.15
			c-0.16,0.8,0.52,2.48-0.92,2.29c-0.43-2.37-0.59-4.66,0.19-6.98C83.59,281.38,83.98,280.38,84.81,279.97z"/>
		<path class="st92" d="M86.01,286.95c3.31-0.97-1.32-13.41,0.53-16.47c2.95-3.38,3.41,3.58,3.26,5.4
			c-0.54,2.34-0.94,4.48,0.51,6.54c-3.06,1.81,0.7,6.62-0.82,8.85C87.06,291.46,84.96,289.25,86.01,286.95z"/>
		<path class="st93" d="M101.61,362.58c-4,2.84-2.28-33.21-1.17-35.83c5.39,3.51,2.2,10.43,2.23,15.66c1,4.05-0.57,7.33-0.92,11.24
			C101.07,356.47,104.29,360.55,101.61,362.58z"/>
		<path class="st94" d="M107.44,296.74c-0.87,2.52,2.43,19.72-2.66,17.44c-1.08-3.83-0.3-5.78,0.79-9.19
			c-3.13-3.17-0.34-5.8-1.37-9.2c-1.81-2.36,3.14-4.6,3.67-1.6C108.02,295.08,106.79,295.83,107.44,296.74z"/>
		<path class="st42" d="M106.64,315.15c-1.22-0.66-2.86,0.05-3.8-1.29C104.04,312.39,105.75,314.19,106.64,315.15z"/>
		<path class="st95" d="M107.44,296.74c-1.35-1.44,0.47-3.79-1.64-4.76c-1.71-0.5,1.58-5.1,1.28-6.61
			c-2.96-4.6,0.25-12.77,3.49-4.38c0.29,3.96,0.46,8.63-0.11,12.52C109.75,294.71,107.65,295.02,107.44,296.74z"/>
		<path class="st96" d="M115.24,255.18c2.99,1.94-1.7,1.93-0.59,3.87c1.88,1.69,0.38,4.46,0.75,6.74c1.31,1.33-0.7,2.71-0.19,4.46
			c0.08,2.93,1.36,6.97-2.75,7.13C113.79,271.51,109.3,257.81,115.24,255.18z"/>
		<path class="st97" d="M115.22,295.99c-4.02-1.57-3.82-14.81-1.21-17.36c0.97-1.19,0.03-2.73,2.25-1.31
			c0.87,0.99-0.95,2.59-0.43,3.69c1.24,3.34,0.54,6.48,0.57,10.33C117.07,293.07,117.74,295.39,115.22,295.99z"/>
		<path class="st98" d="M114.14,297.1c0.64-0.12,1.89-0.79,1.97,0.26c0.02,2.04,1.49,3.94,0.47,6.02c0.89,1.81-0.87,3.46-0.49,5.38
			c1.2,4.75-1.83,12.23-3.31,3.22C113.75,308.53,111.18,298.27,114.14,297.1z"/>
		<path class="st99" d="M116,305.3c2.22,3.51,6.21,8.11-0.36,9.38C115.62,311.89,114.13,307.24,116,305.3z"/>
		<path class="st100" d="M117.2,314.28c0.64-1.05,0.51-2.38,1.59-3.22c0.73-0.61-0.52-1.21-0.42-1.86
			C122.38,310.94,121.66,314.88,117.2,314.28z"/>
		<path class="st101" d="M95.73,309.32c-0.97-0.21-1.57-1.43-2.73-0.9c0.42-1.26-0.27-2.64,0.4-3.87c1.63-0.64,0.61-1.95-0.76-1.46
			c0.79-0.82,1.15-1.74,0.75-2.86c1.32-1.13,3.13-0.24,3.32,1.33c-0.12,0.81-0.83,1.54-0.64,2.36
			C96.12,305.74,97.7,307.95,95.73,309.32z"/>
		<path class="st102" d="M100.82,329.09c-1.22,11.11,0.51,22.45-0.77,33.47c-0.9,0-1.81,0-2.71,0c3.05-11.32-0.28-25.22,1.54-37.38
			c0.38,0.69,0.6,1.5,1.56,1.56C100.33,327.61,100.99,328.21,100.82,329.09z"/>
		<path class="st103" d="M89.93,362.58c3.4-8.7-1.61-19.45,1.94-27.6c2.35,8.05-0.38,17.78,1.04,26.27
			C93.24,362.88,90.95,362.53,89.93,362.58z"/>
		<path class="st104" d="M116.04,304.49c-0.97-1.42,0.7-3.2-0.53-4.59c-1.3-2.47-0.36-7.36,3.14-6.66c1.56,1.92-0.6,5.4,0.71,7.72
			C120.58,304.16,118.42,304.19,116.04,304.49z"/>
		<path class="st105" d="M132.41,314.3c6.73-8.36,8.8,7.67,0.78,10.97C135.23,322.13,135.18,316.88,132.41,314.3z"/>
		<path class="st50" d="M123.4,323.61c1.17-1.43,2.41-2.78,3.89-3.91c0.71,0.49,1.15-0.24,1.73-0.47c0.62,2.53-0.3,5.16,0.96,7.58
			c0.38,0.92-1.29,1.59-0.78,2.62c-0.26,0.94-1.76,2.48-1.57,2.99c2.48,1.88,2.63,3.48-1.08,1.35
			C125.73,330.79,127.59,323.78,123.4,323.61z"/>
		<path class="st106" d="M137.82,327.92c1.19-2.62,4.2-4.5,6.23-6.71C143.91,323.11,139.64,327.34,137.82,327.92z"/>
		<path class="st107" d="M135.48,300.56c1.69-1.76,2.59-3.8,3.16-6.03c1.67,3.38,0.17,7.88-3.48,8.92c0,0,0.02,0.01,0.02,0.01
			C133.01,303.23,134.22,301.13,135.48,300.56z"/>
		<path class="st108" d="M134.73,302.98c1.37,1.49-3.27,0.86-4.23,0.64C131.78,302.09,132.93,302.08,134.73,302.98z"/>
		<path class="st108" d="M135.16,303.45c0.42-0.55,1-0.77,1.67-0.8C136.41,303.19,135.83,303.42,135.16,303.45z"/>
		<path class="st109" d="M129.28,334.14c4.92,0.15,3.11,1.18,2.51,4.8c0.82,4.47,0.67,8.93,0.63,13.48
			c-0.28,3.67,2.21,11.21-3.92,10.14C128.89,353.13,127.62,343.25,129.28,334.14z"/>
		<path class="st110" d="M131.62,362.21c1.07-7.42-2.7-22.39,0.78-27.66c1.06-1.18,2.51,0.03,2.03,1.39
			c-1.2,3.42,0.1,7.21-0.64,10.78C132.05,350.53,136.89,362.3,131.62,362.21z"/>
		<path class="st110" d="M131.62,334.54c-0.54,0.01-1.07-0.05-1.54-0.36c0.51-0.09,1.02-0.17,1.53-0.26
			C131.61,334.13,131.62,334.33,131.62,334.54z"/>
		<path class="st111" d="M129.68,309.65c0.7-1.55-2.98-3.41,0.01-4.37c1.4,0.87,3.43,0.05,4.75,0.58
			C135.34,309.73,126.61,317.83,129.68,309.65z"/>
		<path class="st112" d="M129.68,309.65c2.11,4.11-4.83,5.51-6.64,2.7C124.91,311.03,127.79,311.43,129.68,309.65z"/>
		<path class="st113" d="M123.04,312.34c1.27-0.25,2.17,0.51,3.12,1.17c-0.64,0.79-2.92,4.94-3.43,2.69
			c-0.04-0.32-0.18-0.61-0.82-0.61C120.99,315.38,122.49,312.81,123.04,312.34z"/>
		<path class="st114" d="M132.43,311.36c0.71-1.7,1.03-3.44,1.34-5.29c-1.33-0.02-2.89,0.21-4.07-0.78
			C135.7,304.61,135.99,307.25,132.43,311.36z"/>
		<path class="st62" d="M133.95,371.56c-0.52,0-1.04-0.01-1.56-0.01C132.22,364.64,136.76,365.96,133.95,371.56z"/>
		<path class="st115" d="M135.42,289.32c-0.82,1.73-2.81,1.76-4.15,2.79c0.53-3.37-0.06-6.81,0.74-10.15
			C136.16,281.53,134.57,286.83,135.42,289.32z"/>
		<path class="st116" d="M133.14,275.1c-2.51-0.81,0.98,4.32-0.71,7.2C132.02,281.49,130.45,272.28,133.14,275.1z"/>
		<path class="st115" d="M133.87,281.85c0.15-0.36,0.31-0.72,0.46-1.08C135.1,281.6,135.25,282.95,133.87,281.85z"/>
		<path class="st117" d="M93.39,287.05c5.76-8.65,7.81,13.47,0.29,5.47c-0.25-0.52-0.3-1.13-0.07-1.85
			C93.44,289.34,91.53,288.18,93.39,287.05z"/>
		<path class="st118" d="M90.21,291.33c-3.68-1.46-1.66-13.41,0.6-5.9C90.81,287.39,92.41,290.07,90.21,291.33z"/>
		<path class="st119" d="M95,279.56c6.75,1.31,0.94,3.13-1.63,5.12C93.49,282.84,92.44,279.7,95,279.56z"/>
		<path class="st88" d="M88.7,299.87c-5.12-4.31,0.51-9.35,0.92-3.7C89.38,297.46,90.18,298.98,88.7,299.87z"/>
		<path class="st120" d="M95.75,299.11c-4.35,0.62-3.86-8.74-3.11-11.32c2.37,2.13,2.94,1.18,0.79,3.92
			c-0.3,1.48,2.31,1.98,2.2,3.46C94.32,296.56,96.58,297.81,95.75,299.11z"/>
		<path class="st26" d="M90.57,282.31c-0.99-2.51-0.27-4.94,0.45-7.38c0.88,1.11-0.48,2.46-0.3,3.68
			C90.48,279.81,91.54,281.3,90.57,282.31z"/>
		<path class="st26" d="M91.04,275c-2-0.07-1.88,1.68-2.47,2.94c-0.64-1.59,0.83-2.72,0.95-4.18
			C90.24,273.91,90.75,274.33,91.04,275z"/>
		<path class="st121" d="M101.62,281.61c1.43-1.13,4.71-6.63,1.83-6.85c-0.23,0.58-1.15,0.92-1.41,0.39
			c-0.17-2.17,0.42-4.67,0.28-6.81c-0.31-0.52-0.81-1.62-0.44-2.03c8.32,0.38,2.62,12.82,4.14,18.26c-0.69,1.37-3.49,2.22-3.62,0.06
			C102.37,283.53,101.03,282.82,101.62,281.61z"/>
		<path class="st122" d="M105.53,284.4c-1.27-5.04,0.62-10.35-0.15-15.07c-0.55-0.77,0.34-0.66,0.79-0.66
			c0.28,0.72,0.11,1.72,1.29,1.64c1.7,1.78-0.07,4.58,1.55,6.51c-0.79,0.02-0.94,0.52-0.86,1.19c-2.41-0.17-1.78,4.61-0.42,5.73
			C108.33,285.3,106.26,285.53,105.53,284.4z"/>
		<path class="st123" d="M103.11,266.33c-2.22,0.73,1.58,1.17,1.23,1.96c-2.85,3.18,0.61,9.66-3.86,12.04
			c-3.4-0.44,0.8-3.18-0.24-5.09c-0.83-1.6-0.32-3.42,0.36-4.95C98.75,267.62,99.7,262.84,103.11,266.33z"/>
		<path class="st124" d="M108.36,258.6c-0.02,2.23-1.26,4.29-0.75,6.57c0.13,0.66-0.67,0.9-1.03,1.26c-6.13-1.35-4.85-8.4,1.09-7.12
			C107.97,259.33,108.23,259.19,108.36,258.6z"/>
		<path class="st125" d="M101.66,265.14c-3.06,1.47,0.65,3.5-1.14,5.62c-2.38,2.17,2.55,7.17-1.51,6.9
			c-2.97-2.28,0.26-7.21-2.59-9.59c1.35-0.96,3.13-1.5,4-3.15C101,264.06,101.37,264.26,101.66,265.14z"/>
		<path class="st17" d="M96.84,267.69c-0.13,0.79-1.56,1.27-1.47,0.2C95.86,267.82,96.35,267.76,96.84,267.69z"/>
		<path class="st126" d="M95.37,268.29c7.14-1.97,0.07,8.17,5.44,8.97c-0.76,5.26-5.85-0.11-5.16-3.23
			c-0.55-1.54,1.16-4.13,0.1-5.19C95.47,268.75,95.2,268.67,95.37,268.29z"/>
		<path class="st127" d="M95.35,293.15c2.5,0.6,2.63-1.98,2.1-3.71c-0.84-1.39-0.36-3.97-2.09-4.38c2.95-3.05,6.02-0.8,5.44,2.8
			c1.43,1.86,1.54,7.82-1.69,7.61C97.64,295,95.68,295.27,95.35,293.15z"/>
		<path class="st128" d="M100.37,286.67c-0.49-1.24-1.58-2.04-2.28-3.14c3.62-3.65,6.76-0.17,5.41,3.64
			C102.58,288.09,100.28,288.71,100.37,286.67z"/>
		<path class="st129" d="M134.73,302.98c-1.81,0.15-3.66,0.93-5.44,0.37c-0.61-3.73-0.78-2.66,1.33-5.14
			c-2.34,4.07-5.92-5.53,1-4.57c3.57-2.11,5.47,2.65,3.07,5.1C132.85,300.22,135.22,301.19,134.73,302.98z"/>
		<path class="st130" d="M127.66,268.03c0.15-0.02,0.3-0.03,0.45-0.05c1.38,2.77,1.76,7.19,0.4,9.7c-2.42,0.34-2.49,0.36-2.45-2.11
			C126.5,273.31,123.87,267.92,127.66,268.03z"/>
		<path class="st131" d="M129.63,289.43c-1.82-0.24-0.5,2.99-1.45,3.45c-5.72,3.16-1.67-3.23-2.6-6c-1.48-2.79-3.62-4.76,1.19-2.22
			C128.89,285.58,128.65,287.71,129.63,289.43z"/>
		<path class="st108" d="M134.74,301.42c-3.01-0.82-0.21-2.86,0.23-4.33c0.55-2.23-1.12-3.94-3.35-3.47
			c0.02-0.15,0.04-0.3,0.06-0.45c3.75-1.77,5.48,0.37,4.4,4.11c-0.06,1.17-3.38,3.17-0.6,3.27
			C136.16,301.59,135.88,302.62,134.74,301.42z"/>
		<path class="st132" d="M128.47,283.9c-6.64-2.53-3-4.36,1.95-4.74C127.63,279.8,128,281.78,128.47,283.9z"/>
		<path class="st133" d="M119.45,274.56c-3.31,2.03,3.91,9.04,0.57,12.27c-6.84-3.6-3.66-2.84-3.13-7.77
			c0.04-2.8-1.66-5.61-0.84-8.42c0.99-3.89,6.43-6.28,5.27-0.29c0.03,1.22,1.29,2.42,1.02,3.61
			C121.81,275.93,120.67,275.58,119.45,274.56z"/>
		<path class="st134" d="M127.66,268.03c-2.6,1.78,0.2,6.2-0.63,8.93c-0.12,1.02,0.95,0.54,1.46,0.73
			c-5.58,2.72-7.16,1.71-5.48-4.38C121.76,269.6,123.68,266.9,127.66,268.03z"/>
		<path class="st90" d="M116.05,270.64c1.49,3.84,3.69,10.38-0.4,13.21c-2.07-2.1-0.18-4.34-0.23-6.36
			c-2.02-0.82-0.94-5.81-0.21-7.24C115.49,270.38,115.77,270.51,116.05,270.64z"/>
		<path class="st135" d="M115.26,260.12c-0.01-0.12-0.01-0.24-0.02-0.36c6.65-1.84,6.94,6.06,0.77,6.95
			C114.87,264.85,116.77,262.16,115.26,260.12z"/>
		<path class="st136" d="M125.45,267.84c-1.6,0.65-1.4,2.82-2.65,3.42c-0.82-0.08-1.08,0.67-1.71,0.94
			c-1.44-1.79,0.28-3.95-1.24-5.49C122.36,263.99,123.04,266.37,125.45,267.84z"/>
		<path class="st137" d="M119.96,255.47c1.97,0.87,4.54,3.56,1.38,4.66C117.21,256.79,119.94,258.55,119.96,255.47z"/>
		<path class="st138" d="M122.26,265.2c-0.84,0.44-1.33,1.41-2.37,1.5C120.5,266.29,121.75,263.72,122.26,265.2z"/>
		<path class="st91" d="M84.18,292.04c0.05-0.51,0.1-1.01,0.14-1.52C84.86,291.09,84.88,291.6,84.18,292.04z"/>
		<path class="st118" d="M88.62,280.78c0.06,0.23,0.12,0.46,0.18,0.69C88.23,281.99,88.09,281.02,88.62,280.78z"/>
		<path class="st43" d="M100.82,329.09c-0.33-0.47-0.39-1.01-0.39-1.56C101.2,327.89,101.24,328.43,100.82,329.09z"/>
		<path class="st139" d="M107.06,292.97c0,0.22-0.01,0.44-0.01,0.65c-4.02-1.02-1.02,2.46-1.52,4.25c-1.62,3.32-0.26,4.11,1.14,7.07
			c-0.8-0.6-1.24-0.14-1.64,0.56c-2.76,5.5-2.3-1.46-3.45-3.65c-0.16-0.54,0.05-1.02,0.48-1.37c1.61-1.49-0.42-2.96-1.2-4.21
			C99.72,293.46,105.35,290.22,107.06,292.97z"/>
		<path class="st140" d="M105.11,313.89c-6.28,0.28-1.23-4.6,0.79-6.95C104.51,309.11,105.99,311.63,105.11,313.89z"/>
		<path class="st141" d="M96.55,303.42c3.29-1.8-1.85-5.81,1.27-8.05c3.9-0.29,4.51,3.36,3.49,6.24c1.6,3.52,1.94,10.21-3.68,8.49
			C98.04,307.76,97.17,305.62,96.55,303.42z"/>
		<path class="st142" d="M102.35,308.86c-3.21,0.14,0.46-5.25-2.43-6.87c-0.25-0.24-0.35-0.88-0.02-1.07
			c1.26-0.66,0.94-1.93,1.24-3.03c2.5,0.34,1.02,2.39,1.37,4.16C103.69,304.14,104.48,307.2,102.35,308.86z"/>
		<path class="st143" d="M96.55,303.42c2.41,0.05,1.52,1.87,2.17,3.45c1.29,1.65-0.2,3.83-2.09,2.97c-1.57-1.53-2.19-6.36-0.55-8.38
			C96.4,302.12,95.53,303.01,96.55,303.42z"/>
		<path class="st144" d="M103.5,309.86c-1.07,1.2-1.6,2.48-0.71,4C100.64,311.66,100.89,311.45,103.5,309.86z"/>
		<path class="st145" d="M105.11,286.35c0.88-1.07,1.75-0.1,2.69,0.04c-0.64,1.03,0.25,2.58-0.41,3.41
			C103.86,293.1,102.77,289.34,105.11,286.35z"/>
		<path class="st146" d="M115.26,260.12c2.98,0.53,1.9,6.79-0.82,7.66C114.81,265.12,113.68,262.54,115.26,260.12z"/>
		<path class="st147" d="M116.39,293.18c1.89-1.08,4.35,0.1,5.06,1.99c0.47,1.2-2.19,3.13-1.89,4.2c1.86,2.3,3.38,6.35,0.73,9.06
			c-1.91-0.85-1.93-3.98-4.25-3.94c4.05-1.3,2.57-2.98,1.99-6.24C117.84,295.94,119.33,293.79,116.39,293.18z"/>
		<path class="st148" d="M119.13,291.18c-1.18-0.24-2.34-0.13-3.51,0.12C113.36,279.66,123.91,288.62,119.13,291.18z"/>
		<path class="st149" d="M120.29,308.44c-0.17-0.83-0.78-1.29,0.21-2.11c0.93-2.13-0.72-4.96,0.84-7.09
			C124.54,291.07,130.12,317.8,120.29,308.44z"/>
		<path class="st150" d="M124.52,310.24c1.72-2.95-1.38-7.27,0.44-9.39c1.71,1.12-0.01,1.44,2.95,1.77
			c1.14,0.83-0.07,2.71,0.39,3.86C129.3,308.9,126.5,309.97,124.52,310.24z"/>
		<path class="st151" d="M128.42,308.42c-1.91-1.65-1.76-5.74,1.26-3.15C129.18,306.41,130.52,308.18,128.42,308.42z"/>
		<path class="st151" d="M128.42,303.73c-2.88-0.45-3.84-2.63-0.68-3.94C130.59,299.92,132.06,302.87,128.42,303.73z"/>
		<path class="st152" d="M95.48,295.1c0.73,0.31,1.47,0.63,2.2,0.94c0.12,1.46,1.64,3.04-0.36,4.13c-2.03-0.88-2.67-2.61-3.65-4.34
			C93.12,294.72,95,295.49,95.48,295.1z"/>
		<path class="st153" d="M105.11,286.35c-0.11,1.53-0.22,3.07-0.33,4.6c-1.55,0.4-2.95,1.06-4.05,2.27c0.04-1.43,0.09-2.87,0.13-4.3
			C102.92,289.19,103.77,287.41,105.11,286.35z"/>
		<path class="st154" d="M128.47,298.76c-5.4,3.55-5.33-4.03-0.08-4.04C128.36,296.15,130.04,297.44,128.47,298.76z"/>
		<path class="st155" d="M123.79,286.69c-1.42-0.21-2.83,1.6-3.85-0.22c-1.15-4.89,0.04-6.55,4.26-3.06
			C123.19,284.41,125.58,285.65,123.79,286.69z"/>
		<path class="st156" d="M121.09,272.2c0.02-0.81,0.04-1.61,0.06-2.42c2.7,0.91,1.04,4.28,2.25,5.89c-0.09,1.32-0.4,2.66,0.83,3.63
			c-3.17,3.17-3.9-2.64-4.78-4.74C121.37,275.33,122.36,273.86,121.09,272.2z"/>
		<path class="st157" d="M123.79,286.69c-0.44-0.94-0.41-1.87,0.03-2.8c5.03,0.91,2.33,6.69,2.02,9.81
			c-1.7,1.65-3.79-0.17-3.96-1.87C121.28,290.12,123.73,288.42,123.79,286.69z"/>
		<path class="st158" d="M122.96,288.48c0.08,2.07-0.82,4.24,0.87,6c-1.79,0.43-2.72-2.87-4.71-3.3c0.23-0.86,0.47-1.72,0.7-2.58
			C120.89,289.14,121.92,288.84,122.96,288.48z"/>
		<path class="st159" d="M125.39,295.7c-0.38,2.33,1.44,4.64-1.19,6.12c0.35-1.58-1.87-2.11-1.39-3.77
			c-0.89,0.33-1.11,1.23-1.71,1.82C121.26,297.22,123.3,296.47,125.39,295.7z"/>
	</g>
	<g>
		<rect x="188.36" y="65.72" class="st9" width="5" height="493.08"/>
	</g>
	<g>
		<path class="st9" d="M229.99,341.23l-0.13,3.27c-3.11-0.16-5.93-0.24-8.45-0.24c0.13,1.71,0.19,3.59,0.19,5.67
			c1.92,0,4.11-0.05,6.55-0.15v3.1c-2.47-0.09-4.66-0.13-6.55-0.13c0,2.82,0.04,5.47,0.13,7.96h-4.13
			c0.13-3.01,0.19-6.41,0.19-10.18c0-3.63-0.07-6.72-0.19-9.29H229.99z"/>
		<path class="st9" d="M258.2,350.06c0,3.06-0.94,5.6-2.81,7.61c-1.88,2.01-4.19,3.02-6.95,3.02c-2.63,0-4.84-0.92-6.61-2.77
			c-1.78-1.85-2.66-4.2-2.66-7.05c0-3.06,0.94-5.6,2.81-7.61c1.87-2.01,4.19-3.02,6.95-3.02c2.63,0,4.83,0.92,6.61,2.77
			C257.32,344.85,258.2,347.2,258.2,350.06z M254.08,350.5c0-2.08-0.53-3.77-1.6-5.07c-1.07-1.3-2.38-1.94-3.95-1.94
			c-1.46,0-2.69,0.65-3.71,1.96s-1.53,2.96-1.53,4.95c0,2.07,0.54,3.76,1.61,5.06s2.39,1.95,3.94,1.95c1.46,0,2.69-0.66,3.71-1.97
			C253.57,354.13,254.08,352.48,254.08,350.5z"/>
		<path class="st9" d="M283.27,360.69h-4.43c-1.16-3.53-2.04-5.71-2.66-6.53c-0.62-0.83-1.62-1.24-2.99-1.24
			c-0.58,0-1.13,0-1.66,0.01c0,2.56,0.04,5.15,0.13,7.76h-4.16c0.13-3.01,0.19-6.41,0.19-10.18c0-3.63-0.07-6.72-0.19-9.29h2.59
			c0.3,0,0.92-0.02,1.88-0.04c0.95-0.03,1.83-0.04,2.64-0.04c4.58,0,6.86,1.57,6.86,4.7c0,2.48-1.31,4.21-3.92,5.19v0.22
			c1.01,0.28,1.89,1.06,2.65,2.35C280.97,354.89,281.99,357.25,283.27,360.69z M277.67,346.94c0-1.98-1.28-2.98-3.83-2.98
			c-0.94,0-1.76,0.07-2.48,0.21c0.11,1.55,0.17,3.56,0.17,6.04c0.55,0.02,1.01,0.03,1.39,0.03
			C276.08,350.24,277.67,349.14,277.67,346.94z"/>
		<path class="st9" d="M319.88,346.32c0,2.38-0.88,4.14-2.65,5.28c-1.77,1.14-3.94,1.71-6.51,1.71c-0.47,0-0.8-0.01-1-0.03
			c0,1.87,0.05,4.35,0.17,7.42h-4.2c0.13-2.88,0.19-6.28,0.19-10.18c0-3.59-0.07-6.68-0.19-9.29h2.6c0.37,0,1.08-0.02,2.12-0.04
			c1.05-0.03,1.95-0.04,2.72-0.04c1.89,0,3.49,0.43,4.8,1.29C319.23,343.28,319.88,344.58,319.88,346.32z M316.02,347.15
			c0-2.13-1.42-3.2-4.25-3.2c-0.71,0-1.46,0.08-2.24,0.22c0.11,1.88,0.17,4.02,0.17,6.4c0.25,0.02,0.54,0.03,0.87,0.03
			C314.2,350.6,316.02,349.45,316.02,347.15z"/>
		<path class="st9" d="M344.3,360.69h-4.43c-1.16-3.53-2.04-5.71-2.66-6.53c-0.62-0.83-1.62-1.24-2.99-1.24
			c-0.58,0-1.13,0-1.66,0.01c0,2.56,0.04,5.15,0.13,7.76h-4.16c0.13-3.01,0.19-6.41,0.19-10.18c0-3.63-0.07-6.72-0.19-9.29h2.59
			c0.3,0,0.92-0.02,1.88-0.04c0.95-0.03,1.83-0.04,2.64-0.04c4.58,0,6.86,1.57,6.86,4.7c0,2.48-1.31,4.21-3.92,5.19v0.22
			c1.01,0.28,1.89,1.06,2.65,2.35C341.99,354.89,343.02,357.25,344.3,360.69z M338.69,346.94c0-1.98-1.28-2.98-3.83-2.98
			c-0.94,0-1.76,0.07-2.48,0.21c0.11,1.55,0.17,3.56,0.17,6.04c0.55,0.02,1.01,0.03,1.39,0.03
			C337.11,350.24,338.69,349.14,338.69,346.94z"/>
		<path class="st9" d="M371.16,350.06c0,3.06-0.94,5.6-2.81,7.61c-1.88,2.01-4.19,3.02-6.95,3.02c-2.63,0-4.84-0.92-6.61-2.77
			c-1.78-1.85-2.66-4.2-2.66-7.05c0-3.06,0.94-5.6,2.81-7.61c1.87-2.01,4.19-3.02,6.95-3.02c2.63,0,4.83,0.92,6.61,2.77
			C370.27,344.85,371.16,347.2,371.16,350.06z M367.03,350.5c0-2.08-0.53-3.77-1.6-5.07c-1.07-1.3-2.38-1.94-3.95-1.94
			c-1.46,0-2.69,0.65-3.71,1.96s-1.53,2.96-1.53,4.95c0,2.07,0.54,3.76,1.61,5.06s2.39,1.95,3.94,1.95c1.46,0,2.69-0.66,3.71-1.97
			C366.52,354.13,367.03,352.48,367.03,350.5z"/>
		<path class="st9" d="M393.36,354.85c0,3.9-2.8,5.85-8.4,5.85c-1.9,0-3.67-0.23-5.31-0.69l0.73-3.33c1.62,0.56,3.14,0.84,4.58,0.84
			c1.59,0,2.74-0.15,3.44-0.46c0.7-0.31,1.05-0.83,1.05-1.55c0-0.76-0.33-1.4-0.99-1.91c-0.57-0.46-1.72-1.06-3.45-1.79
			c-1.58-0.68-2.75-1.42-3.51-2.21c-0.97-1.01-1.45-2.25-1.45-3.72c0-1.71,0.64-3.05,1.91-4.02c1.27-0.97,3.1-1.45,5.48-1.45
			c1.95,0,3.59,0.17,4.92,0.49l-0.55,3.32c-1.35-0.49-2.8-0.73-4.37-0.73c-2.35,0-3.53,0.63-3.53,1.88c0,0.67,0.27,1.21,0.82,1.63
			c0.48,0.36,1.52,0.86,3.12,1.51c1.71,0.69,2.98,1.45,3.83,2.27C392.8,351.86,393.36,353.22,393.36,354.85z"/>
		<path class="st9" d="M418.4,346.32c0,2.38-0.88,4.14-2.65,5.28c-1.77,1.14-3.94,1.71-6.51,1.71c-0.47,0-0.8-0.01-1-0.03
			c0,1.87,0.05,4.35,0.17,7.42h-4.2c0.13-2.88,0.19-6.28,0.19-10.18c0-3.59-0.07-6.68-0.19-9.29h2.6c0.37,0,1.08-0.02,2.12-0.04
			c1.05-0.03,1.95-0.04,2.72-0.04c1.89,0,3.49,0.43,4.8,1.29C417.75,343.28,418.4,344.58,418.4,346.32z M414.55,347.15
			c0-2.13-1.42-3.2-4.25-3.2c-0.71,0-1.46,0.08-2.24,0.22c0.11,1.88,0.17,4.02,0.17,6.4c0.25,0.02,0.54,0.03,0.87,0.03
			C412.73,350.6,414.55,349.45,414.55,347.15z"/>
		<path class="st9" d="M441.6,357.4l-0.12,3.29h-12.73c0.13-3.01,0.19-6.41,0.19-10.18c0-3.63-0.07-6.72-0.19-9.29h12.14l-0.16,3.27
			c-2.99-0.16-5.7-0.24-8.13-0.24c0.1,1.39,0.15,3.02,0.15,4.9c2.08,0,4.31-0.05,6.68-0.16v3.12c-2.33-0.1-4.56-0.15-6.68-0.15
			c0,2.02,0.04,3.92,0.12,5.68C435.6,357.66,438.51,357.57,441.6,357.4z"/>
		<path class="st9" d="M464.8,360.69h-4.43c-1.16-3.53-2.04-5.71-2.66-6.53c-0.62-0.83-1.62-1.24-2.99-1.24
			c-0.58,0-1.13,0-1.66,0.01c0,2.56,0.04,5.15,0.13,7.76h-4.16c0.13-3.01,0.19-6.41,0.19-10.18c0-3.63-0.07-6.72-0.19-9.29h2.59
			c0.3,0,0.92-0.02,1.88-0.04c0.95-0.03,1.83-0.04,2.64-0.04c4.58,0,6.86,1.57,6.86,4.7c0,2.48-1.31,4.21-3.92,5.19v0.22
			c1.01,0.28,1.89,1.06,2.65,2.35C462.49,354.89,463.51,357.25,464.8,360.69z M459.19,346.94c0-1.98-1.28-2.98-3.83-2.98
			c-0.94,0-1.76,0.07-2.48,0.21c0.11,1.55,0.17,3.56,0.17,6.04c0.55,0.02,1.01,0.03,1.39,0.03
			C457.61,350.24,459.19,349.14,459.19,346.94z"/>
		<path class="st9" d="M477.15,360.69h-4.23c0.13-3.09,0.19-6.48,0.19-10.18c0-3.64-0.07-6.73-0.19-9.29h4.23
			c-0.13,2.51-0.19,5.61-0.19,9.29C476.95,354.27,477.02,357.66,477.15,360.69z"/>
		<path class="st9" d="M499.18,341.23l-0.1,3.21c-1.99-0.15-3.87-0.22-5.64-0.22c-0.02,1.88-0.03,3.98-0.03,6.29
			c0,3.59,0.05,6.98,0.16,10.18h-4.19c0.13-3.17,0.19-6.56,0.19-10.18c0-2.27-0.02-4.37-0.06-6.29c-1.41,0-3.33,0.08-5.79,0.24
			l0.12-3.23H499.18z"/>
		<path class="st9" d="M522.58,341.23c0,0.41-0.57,1.51-1.7,3.3c-1.75,2.74-2.81,4.45-3.19,5.11c-1.14,2.02-1.7,3.52-1.7,4.5
			c0,2.19,0.06,4.38,0.18,6.55h-4.25c0.11-2.18,0.16-4.38,0.16-6.59c0-1.02-0.52-2.56-1.57-4.62c-0.49-0.96-1.46-2.67-2.93-5.13
			c-1.05-1.76-1.57-2.81-1.57-3.12h4.7c0,0.36,0.63,1.87,1.88,4.54c1.25,2.67,1.88,4.39,1.88,5.17h0.24c0-0.72,0.61-2.35,1.83-4.9
			c1.22-2.55,1.83-4.15,1.83-4.8H522.58z"/>
		<path class="st9" d="M240.08,397.44h-4.35c0-1.69-0.1-4.55-0.31-8.58c-0.21-4.02-0.32-6.53-0.33-7.53h-0.22
			c-0.1,0.6-0.36,1.7-0.79,3.32c-0.43,1.62-1.23,4-2.42,7.14c-1.18,3.14-1.77,5.03-1.77,5.64h-3.3c0-0.64-0.57-2.54-1.7-5.7
			c-1.13-3.16-1.87-5.37-2.22-6.64c-0.35-1.27-0.63-2.52-0.84-3.77h-0.22c-0.01,1.25-0.13,3.92-0.37,8.01
			c-0.23,4.1-0.35,6.79-0.35,8.09h-3.95c0-0.3,0.36-3.29,1.08-8.99c0.72-5.69,1.08-9.19,1.08-10.48h5.79c0,1.12,0.61,3.58,1.83,7.39
			c1.22,3.81,1.83,6.25,1.83,7.31h0.22c0-1.08,0.7-3.52,2.09-7.33c1.39-3.81,2.09-6.27,2.09-7.37h5.74c0,2.06,0.23,5.74,0.7,11.04
			C239.85,394.32,240.08,397.12,240.08,397.44z"/>
		<path class="st9" d="M264.44,394.15l-0.12,3.29H251.6c0.13-3.01,0.19-6.41,0.19-10.18c0-3.63-0.07-6.72-0.19-9.29h12.14
			l-0.16,3.27c-2.99-0.16-5.7-0.24-8.13-0.24c0.1,1.39,0.15,3.02,0.15,4.9c2.08,0,4.31-0.05,6.68-0.16v3.12
			c-2.33-0.1-4.56-0.15-6.68-0.15c0,2.02,0.04,3.92,0.12,5.68C258.44,394.41,261.35,394.32,264.44,394.15z"/>
		<path class="st9" d="M288.02,397.44h-3.69c0-0.41-1.37-2.57-4.11-6.47c-2.87-4.12-4.51-6.93-4.9-8.45h-0.24
			c0.25,2.18,0.37,4.16,0.37,5.92c0,2.46,0.07,5.46,0.21,9h-3.68c0.15-3.09,0.22-6.48,0.22-10.18c0-3.64-0.08-6.73-0.22-9.29h4.44
			c0,0.53,1.23,2.64,3.69,6.33c2.62,3.92,4.13,6.57,4.52,7.97h0.22c-0.24-2.22-0.36-4.22-0.36-5.98c0-2.7-0.07-5.47-0.21-8.31h3.74
			c-0.14,2.47-0.21,5.57-0.21,9.29C287.81,391.01,287.88,394.4,288.02,397.44z"/>
		<path class="st9" d="M312.29,377.97l-0.1,3.21c-1.99-0.15-3.87-0.22-5.64-0.22c-0.02,1.88-0.03,3.98-0.03,6.29
			c0,3.59,0.05,6.98,0.16,10.18h-4.19c0.13-3.17,0.19-6.56,0.19-10.18c0-2.27-0.02-4.37-0.06-6.29c-1.41,0-3.33,0.08-5.79,0.24
			l0.12-3.23H312.29z"/>
		<path class="st9" d="M338.66,397.44h-4.79c0-0.66-0.45-2.52-1.36-5.59h-6.91c-0.94,3.02-1.41,4.88-1.41,5.59h-4.5
			c0-0.39,1.16-3.58,3.49-9.57c2.33-5.99,3.49-9.29,3.49-9.9h5.65c0,0.57,1.05,3.82,3.16,9.76S338.66,396.9,338.66,397.44z
			 M331.75,388.99c-1.71-5.14-2.56-7.93-2.56-8.34h-0.24c0,0.39-0.88,3.17-2.65,8.34H331.75z"/>
		<path class="st9" d="M361.06,394.18l-0.12,3.26h-12.43c0.12-2.7,0.18-6.1,0.18-10.18c0-3.75-0.06-6.84-0.18-9.29h4.2
			c-0.12,2.26-0.18,5.36-0.18,9.29c0,3-0.07,5.38-0.19,7.15C355.1,394.41,358,394.33,361.06,394.18z"/>
		<path class="st9" d="M393.99,397.44h-4.23c0.1-3.3,0.15-6.16,0.15-8.58h-7.54c0,2.17,0.05,5.03,0.15,8.58h-4.23
			c0.13-3.29,0.19-6.68,0.19-10.18c0-3.54-0.07-6.63-0.19-9.29h4.23c-0.12,2.8-0.18,5.39-0.18,7.78h7.6c0-2.1-0.06-4.7-0.18-7.78
			h4.23c-0.14,2.53-0.21,5.63-0.21,9.29C393.78,391.08,393.85,394.47,393.99,397.44z"/>
		<path class="st9" d="M417.48,394.15l-0.12,3.29h-12.73c0.13-3.01,0.19-6.41,0.19-10.18c0-3.63-0.07-6.72-0.19-9.29h12.14
			l-0.16,3.27c-2.99-0.16-5.7-0.24-8.13-0.24c0.1,1.39,0.15,3.02,0.15,4.9c2.08,0,4.31-0.05,6.68-0.16v3.12
			c-2.33-0.1-4.56-0.15-6.68-0.15c0,2.02,0.04,3.92,0.12,5.68C411.48,394.41,414.39,394.32,417.48,394.15z"/>
		<path class="st9" d="M445.29,397.44h-4.79c0-0.66-0.45-2.52-1.36-5.59h-6.91c-0.94,3.02-1.41,4.88-1.41,5.59h-4.5
			c0-0.39,1.16-3.58,3.49-9.57c2.33-5.99,3.49-9.29,3.49-9.9h5.65c0,0.57,1.05,3.82,3.16,9.76S445.29,396.9,445.29,397.44z
			 M438.38,388.99c-1.71-5.14-2.56-7.93-2.56-8.34h-0.24c0,0.39-0.88,3.17-2.65,8.34H438.38z"/>
		<path class="st9" d="M467.69,394.18l-0.12,3.26h-12.43c0.12-2.7,0.18-6.1,0.18-10.18c0-3.75-0.06-6.84-0.18-9.29h4.2
			c-0.12,2.26-0.18,5.36-0.18,9.29c0,3-0.07,5.38-0.19,7.15C461.73,394.41,464.63,394.33,467.69,394.18z"/>
		<path class="st9" d="M484.55,377.97l-0.1,3.21c-1.99-0.15-3.87-0.22-5.64-0.22c-0.02,1.88-0.03,3.98-0.03,6.29
			c0,3.59,0.05,6.98,0.16,10.18h-4.19c0.13-3.17,0.19-6.56,0.19-10.18c0-2.27-0.02-4.37-0.06-6.29c-1.41,0-3.33,0.08-5.79,0.24
			l0.12-3.23H484.55z"/>
		<path class="st9" d="M509.07,397.44h-4.23c0.1-3.3,0.15-6.16,0.15-8.58h-7.54c0,2.17,0.05,5.03,0.15,8.58h-4.23
			c0.13-3.29,0.19-6.68,0.19-10.18c0-3.54-0.07-6.63-0.19-9.29h4.23c-0.12,2.8-0.18,5.39-0.18,7.78h7.6c0-2.1-0.06-4.7-0.18-7.78
			h4.23c-0.14,2.53-0.21,5.63-0.21,9.29C508.86,391.08,508.94,394.47,509.07,397.44z"/>
		<path class="st9" d="M551.68,397.01h-4.43c0-0.29-0.23-0.83-0.69-1.62c-0.46-0.79-0.86-1.37-1.21-1.74h-0.22
			c-1.89,2.53-4.24,3.8-7.03,3.8c-1.85,0-3.32-0.47-4.4-1.41c-1.08-0.94-1.62-2.21-1.62-3.81c0-1.29,0.36-2.48,1.09-3.58
			s1.78-1.95,3.17-2.54v-0.21c-1.76-1.35-2.65-2.75-2.65-4.22c0-1.42,0.57-2.51,1.71-3.3s2.46-1.17,3.97-1.17
			c1.44,0,2.68,0.36,3.72,1.08c1.05,0.72,1.57,1.74,1.57,3.06c0,1.82-0.98,3.18-2.93,4.07v0.22c0.91,0.49,2.17,1.54,3.8,3.16h0.22
			c0.41-0.67,0.61-1.73,0.61-3.19h3.75c0,0.41-0.31,1.18-0.94,2.32c-0.63,1.14-1.21,1.97-1.73,2.5v0.21c0.8,0.74,1.7,1.87,2.71,3.39
			S551.68,396.55,551.68,397.01z M543.96,391.96v-0.22c-0.6-0.68-1.39-1.49-2.38-2.45c-0.99-0.95-2.05-1.69-3.18-2.22
			c-1.68,0.77-2.53,2.15-2.53,4.14c0,1.03,0.3,1.85,0.91,2.48c0.63,0.66,1.49,0.99,2.57,0.99
			C540.91,394.68,542.44,393.77,543.96,391.96z M541.58,381.94c0-0.72-0.2-1.28-0.61-1.69c-0.41-0.41-0.94-0.61-1.58-0.61
			c-0.63,0-1.16,0.18-1.59,0.55c-0.43,0.36-0.65,0.83-0.65,1.4c0,1.19,0.87,2.17,2.62,2.96
			C540.97,383.97,541.58,383.1,541.58,381.94z"/>
		<path class="st9" d="M599.84,377.97c0,0.93-1,4.22-2.99,9.87s-2.99,8.85-2.99,9.6h-3.95c0-0.79-0.6-3.01-1.81-6.65
			c-1.29-3.91-2.01-6.48-2.17-7.73h-0.25c-0.16,1.26-0.83,3.85-2,7.79c-1.1,3.68-1.64,5.88-1.64,6.59h-4.04
			c0-0.94-0.98-4.27-2.95-10c-1.96-5.73-2.95-8.89-2.95-9.46h4.74c0,0.63,0.57,3.13,1.71,7.51c1.14,4.38,1.71,6.97,1.71,7.79h0.24
			c0-0.82,0.61-3.37,1.82-7.65c1.22-4.28,1.82-6.83,1.82-7.65h4.26c0,0.75,0.61,3.34,1.82,7.78c1.22,4.44,1.82,6.95,1.82,7.51h0.24
			c0-0.72,0.55-3.16,1.65-7.31c1.1-4.16,1.65-6.82,1.65-7.98H599.84z"/>
		<path class="st9" d="M622.53,394.15l-0.12,3.29h-12.73c0.13-3.01,0.19-6.41,0.19-10.18c0-3.63-0.07-6.72-0.19-9.29h12.14
			l-0.16,3.27c-2.99-0.16-5.7-0.24-8.13-0.24c0.1,1.39,0.15,3.02,0.15,4.9c2.08,0,4.31-0.05,6.68-0.16v3.12
			c-2.33-0.1-4.56-0.15-6.68-0.15c0,2.02,0.04,3.92,0.12,5.68C616.53,394.41,619.44,394.32,622.53,394.15z"/>
		<path class="st9" d="M642.03,394.18l-0.12,3.26h-12.43c0.12-2.7,0.18-6.1,0.18-10.18c0-3.75-0.06-6.84-0.18-9.29h4.2
			c-0.12,2.26-0.18,5.36-0.18,9.29c0,3-0.07,5.38-0.19,7.15C636.06,394.41,638.97,394.33,642.03,394.18z"/>
		<path class="st9" d="M663.23,394.18l-0.12,3.26h-12.43c0.12-2.7,0.18-6.1,0.18-10.18c0-3.75-0.06-6.84-0.18-9.29h4.2
			c-0.12,2.26-0.18,5.36-0.18,9.29c0,3-0.07,5.38-0.19,7.15C657.27,394.41,660.17,394.33,663.23,394.18z"/>
		<path class="st9" d="M684.2,397.44h-3.69c0-0.41-1.37-2.57-4.11-6.47c-2.87-4.12-4.51-6.93-4.9-8.45h-0.24
			c0.25,2.18,0.37,4.16,0.37,5.92c0,2.46,0.07,5.46,0.21,9h-3.68c0.15-3.09,0.22-6.48,0.22-10.18c0-3.64-0.08-6.73-0.22-9.29h4.44
			c0,0.53,1.23,2.64,3.69,6.33c2.62,3.92,4.13,6.57,4.52,7.97h0.22c-0.24-2.22-0.36-4.22-0.36-5.98c0-2.7-0.07-5.47-0.21-8.31h3.74
			c-0.14,2.47-0.21,5.57-0.21,9.29C683.99,391.01,684.06,394.4,684.2,397.44z"/>
		<path class="st9" d="M707.69,394.15l-0.12,3.29h-12.73c0.13-3.01,0.19-6.41,0.19-10.18c0-3.63-0.07-6.72-0.19-9.29h12.14
			l-0.16,3.27c-2.99-0.16-5.7-0.24-8.13-0.24c0.1,1.39,0.15,3.02,0.15,4.9c2.08,0,4.31-0.05,6.68-0.16v3.12
			c-2.33-0.1-4.56-0.15-6.68-0.15c0,2.02,0.04,3.92,0.12,5.68C701.69,394.41,704.6,394.32,707.69,394.15z"/>
		<path class="st9" d="M731.24,391.6c0,3.9-2.8,5.85-8.4,5.85c-1.9,0-3.67-0.23-5.31-0.69l0.73-3.33c1.62,0.56,3.14,0.84,4.58,0.84
			c1.59,0,2.74-0.15,3.44-0.46c0.7-0.31,1.05-0.83,1.05-1.55c0-0.76-0.33-1.4-0.99-1.91c-0.57-0.46-1.72-1.06-3.45-1.79
			c-1.58-0.68-2.75-1.42-3.51-2.21c-0.97-1.01-1.45-2.25-1.45-3.72c0-1.71,0.64-3.05,1.91-4.02c1.27-0.97,3.1-1.45,5.48-1.45
			c1.95,0,3.59,0.17,4.92,0.49l-0.55,3.32c-1.35-0.49-2.8-0.73-4.37-0.73c-2.35,0-3.53,0.63-3.53,1.88c0,0.67,0.27,1.21,0.82,1.63
			c0.48,0.36,1.52,0.86,3.12,1.51c1.71,0.69,2.98,1.45,3.83,2.27C730.68,388.61,731.24,389.97,731.24,391.6z"/>
		<path class="st9" d="M754.79,391.6c0,3.9-2.8,5.85-8.4,5.85c-1.9,0-3.67-0.23-5.31-0.69l0.73-3.33c1.62,0.56,3.14,0.84,4.58,0.84
			c1.59,0,2.74-0.15,3.44-0.46c0.7-0.31,1.05-0.83,1.05-1.55c0-0.76-0.33-1.4-0.99-1.91c-0.57-0.46-1.72-1.06-3.45-1.79
			c-1.58-0.68-2.75-1.42-3.51-2.21c-0.97-1.01-1.45-2.25-1.45-3.72c0-1.71,0.64-3.05,1.91-4.02c1.27-0.97,3.1-1.45,5.48-1.45
			c1.95,0,3.59,0.17,4.92,0.49l-0.55,3.32c-1.35-0.49-2.8-0.73-4.37-0.73c-2.35,0-3.53,0.63-3.53,1.88c0,0.67,0.27,1.21,0.82,1.63
			c0.48,0.36,1.52,0.86,3.12,1.51c1.71,0.69,2.98,1.45,3.83,2.27C754.23,388.61,754.79,389.97,754.79,391.6z"/>
	</g>
</g>
</svg>
