<svg xmlns="http://www.w3.org/2000/svg" viewBox="0 0 512 512" xml:space="preserve"><circle fill="#77D0DE" cx="322.2" cy="195.9" r="118.1"/><path fill="#FFF" d="M322.2 290.2c-52 0-94.3-42.3-94.3-94.3s42.3-94.3 94.3-94.3c39.2 0 74.7 24.7 88.4 61.4.7 1.9-.3 4-2.1 4.7-1.9.7-4-.3-4.7-2.1-12.6-33.9-45.4-56.6-81.6-56.6-48 0-87 39-87 87s39 87 87 87c2 0 3.6 1.6 3.6 3.6s-1.6 3.6-3.6 3.6z"/><path fill="#FFF" d="m395.3 159.3 18 36.5 2.7-40.6z"/><path fill="#6BA417" d="M160.4 443.1c.5-2.5.8-5.1.8-7.7 0-2.6-.3-5.2-.8-7.7l14.9-15-5.8-10.1-20.4 5.4c-1.9-1.7-4-3.3-6.2-4.5-2.2-1.3-4.6-2.3-7.1-3.1l-5.6-20.4h-11.6l-5.6 20.4c-2.5.8-4.8 1.8-7 3.1s-4.3 2.8-6.3 4.5l-20.4-5.4-5.9 10.1 14.9 15c-.5 2.5-.8 5.1-.8 7.7 0 2.6.3 5.2.8 7.7l-14.9 15 5.9 10.1 20.4-5.4c1.9 1.7 4 3.2 6.3 4.5 2.2 1.3 4.6 2.4 7 3.1l5.6 20.4h11.6l5.6-20.4c2.5-.8 4.8-1.9 7.1-3.1 2.2-1.3 4.3-2.8 6.2-4.5l20.4 5.4 5.8-10.1-14.9-15zm-23.8 13.6c-7.3 4.4-17.2 4.4-24.5 0-7.5-4.3-12.4-12.6-12.3-21.2-.1-8.6 4.8-17 12.3-21.2 7.3-4.3 17.2-4.3 24.5 0 7.5 4.3 12.4 12.6 12.3 21.2.1 8.6-4.8 16.9-12.3 21.2z"/><path fill="#FCD751" d="M144.2 324.8c7.4-1.1 14.7-3.4 21.9-6.8.3-3.9.3-7.9 0-11.8-7.2-3.4-14.5-5.6-21.9-6.8-.7-2.8-1.6-5.5-2.6-8.1-1.1-2.6-2.4-5.2-3.9-7.6 4.4-6 8-12.8 10.7-20.3-2.5-3-5.4-5.8-8.4-8.4-7.4 2.7-14.2 6.3-20.3 10.7-2.4-1.5-5-2.8-7.6-3.9-2.6-1.1-5.4-2-8.1-2.6-1.1-7.4-3.4-14.7-6.8-21.9-3.9-.3-7.9-.3-11.8 0-3.4 7.2-5.6 14.5-6.8 21.9-2.8.7-5.5 1.6-8.1 2.6-2.6 1.1-5.2 2.4-7.6 3.9-6-4.4-12.8-8-20.3-10.7-3 2.5-5.8 5.4-8.4 8.4 2.7 7.4 6.3 14.2 10.7 20.3-1.5 2.4-2.8 5-3.9 7.6-1.1 2.6-2 5.4-2.6 8.1-7.4 1.1-14.7 3.4-21.9 6.8-.3 3.9-.4 7.9 0 11.8 7.2 3.4 14.5 5.7 21.9 6.8.7 2.8 1.6 5.5 2.6 8.1 1.1 2.6 2.4 5.2 3.9 7.6-4.4 6-8 12.8-10.7 20.3 2.5 3 5.4 5.8 8.4 8.4 7.5-2.7 14.2-6.3 20.3-10.7 2.4 1.5 5 2.8 7.6 3.9 2.7 1.1 5.4 2 8.1 2.6 1.1 7.4 3.4 14.7 6.8 21.9 3.9.3 7.9.3 11.8 0 3.4-7.2 5.6-14.5 6.8-21.9 2.8-.7 5.5-1.6 8.1-2.6 2.6-1.1 5.2-2.4 7.6-3.9 6 4.4 12.8 8 20.3 10.7 3-2.6 5.8-5.4 8.3-8.4-2.7-7.5-6.3-14.3-10.7-20.3 1.5-2.4 2.8-5 3.9-7.6 1.2-2.6 2-5.3 2.7-8.1zm-39.4 20a35.1 35.1 0 0 1-27 0c-8.6-3.6-15.6-10.5-19.1-19.1a35.1 35.1 0 0 1 0-27c3.5-8.6 10.5-15.6 19.1-19.1a35.1 35.1 0 0 1 27 0c8.6 3.6 15.6 10.5 19.1 19.1a35.1 35.1 0 0 1 0 27 35.72 35.72 0 0 1-19.1 19.1z"/><path fill="#606466" d="M355 478.8c-2 0-3.6-1.6-3.6-3.6 0-.6-.2-16.3 7.1-61.3 1.1-6.6 4.2-19.8 8.5-29 .4-.9 1.2-1.6 2.2-1.9 1-.3 2-.2 2.9.3l.8.4c4 2.1 10.6 4.6 31.5 9.5 20.1 4.7 39.4-1 46.5-9.2 3.2-3.7 2.3-10.5.9-16.6l-1.2-5.1c-1.2-4.8-2.3-8.9-2-12.2.6-6.2 6-9.6 10.9-12.5 1.7-1 3.3-2.1 4.8-3.2 1.2-1 2.1-1.9 2.5-2.8.2-.4.6-1.3.3-1.8-.4-.7-2.5-2-7.9-2.4-1.8-.1-3.2-1.6-3.3-3.3-.1-1.8 1-3.4 2.8-3.8 6.5-1.6 11.5-4.1 12.2-5.3 0-.1.1-1.1-.4-4.5l-.3-2.2c-.5-3-1-6.4-1.2-9.7-.2-2.7-.1-5.1.2-7.1.1-.7.2-1.6.5-2.3.4-1.4 1.6-2.3 3.1-2.5 8.6-.9 16.9-5.1 18.4-9.4 1.8-5.1-10.3-22.7-19.1-35.6-11.7-16.9-11.5-38.4-11.2-55.7v-6.2c0-17.3-10.5-59.7-23.4-79.2-3.9-5.8-40-56.9-121.3-56.9-94.3 0-138.6 66.4-145.4 111-5.3 34.9 14.7 88.3 25.5 116.9 2.6 6.9 4.8 12.7 6 16.6 1.2 3.8 2 8.6 2.4 14 .3 4.2.3 8.8 0 13.6-.4 9.1-5.2 35.4-14.2 78-.4 2-2.4 3.2-4.3 2.8-2-.4-3.2-2.3-2.8-4.3 8.7-41.7 13.6-68.2 14-76.9.2-4.5.2-8.8 0-12.7-.3-4.9-1-9-2-12.3-1.2-3.9-3.3-9.5-5.9-16.3-11.8-31.3-31.5-83.8-25.9-120.6 7.2-47.1 53.7-117.2 152.6-117.2 85.1 0 123.3 54 127.3 60.1 14 21.2 24.6 65.1 24.6 83.2v6.3c-.2 16.2-.4 36.5 10 51.5 14.3 20.8 22.9 34 20 42.2-3.1 7.7-13.1 12.4-22.1 14-.1 1.4-.1 2.9 0 4.6.2 3.1.7 6.3 1.1 9.1l.3 2.3c.6 3.9.8 6.5-.1 8.5-1 2.3-3.5 4.2-6.4 5.6 1 .7 1.7 1.6 2.3 2.6 1 1.7 1.8 4.6 0 8.5-.9 1.9-2.4 3.7-4.5 5.4-1.6 1.3-3.5 2.5-5.5 3.7-3.7 2.3-7.2 4.4-7.4 7-.2 2 .8 6 1.8 9.8.4 1.7.9 3.5 1.3 5.2 1.8 7.9 2.8 16.8-2.5 22.9-8.4 9.7-30 17-53.7 11.5-17.4-4-25.5-6.6-30.7-8.9-3.2 8.2-5.5 18.3-6.4 23.7-7.2 44-7 59.8-7 60 0 2-1.6 3.7-3.6 3.7z"/></svg>