<svg xmlns="http://www.w3.org/2000/svg" width="260" height="260" style="enable-background:new 0 0 260 260" xml:space="preserve"><path d="M130 2C59.3 2 2 59.3 2 130s57.3 128 128 128 128-57.3 128-128S200.7 2 130 2zM45.6 88.3 108 68.7l4.2 13.4-62.4 19.5-4.2-13.3zM59.9 127c0-12.2 9.8-22 22-22s22 9.8 22 22-9.8 22-22 22-22-9.8-22-22zm113.9 82.6-15.6-12.3-18.8 14.8-18.8-14.8-18.8 14.8-22-17.3 6.4-8.1 15.6 12.3 18.8-14.8 18.8 14.8 18.8-14.8 22 17.3-6.4 8.1zm4.3-60.6c-12.2 0-22-9.8-22-22s9.8-22 22-22 22 9.8 22 22-9.8 22-22 22zm32.1-47.4-62.4-19.5 4.2-13.4 62.4 19.5-4.2 13.4z"/></svg>