<svg xmlns="http://www.w3.org/2000/svg" viewBox="0 0 122.88 108.8" style="enable-background:new 0 0 122.88 108.8" xml:space="preserve"><path d="M26.52 59.47c-.36.11-.76.08-1.13-.1-1.49-.78-2.69-1.31-3.94-1.38-1.23-.07-2.54.3-4.28 1.34-.35.21-.75.26-1.13.17a1.48 1.48 0 0 1-.92-.68c-.21-.35-.26-.75-.17-1.13.09-.37.32-.71.68-.92.95-.56 1.88-.97 2.82-1.23s1.88-.36 2.83-.34c.93.02 1.84.17 2.76.43.91.26 1.8.63 2.7 1.09.36.19.61.51.73.86.11.36.08.76-.1 1.13-.16.39-.48.64-.85.76zM11.38 83.59c1.04-.35 2.07-.5 3.08-.47 1.42.04 2.8.41 4.13 1.01.8.36 1.15 1.29.8 2.09-.35.79-1.29 1.15-2.09.8-.98-.44-1.95-.71-2.92-.74-.89-.02-1.8.16-2.74.62l.05.45c.06.51.15 1.05.25 1.6.09.54.21 1.08.32 1.63v.02c.04.21.04.42.01.61-.03.21-.11.41-.22.58-.4.8-.7 1.55-.92 2.23-.22.7-.34 1.32-.38 1.88-.03.56.02 1.05.16 1.48.13.43.36.79.66 1.09.32.32.74.6 1.24.83.53.24 1.15.43 1.84.55 1.07.2 2.3.27 3.62.23 1.4-.04 2.9-.22 4.47-.5 1.54-.28 3.19-.65 4.84-1.09 1.5-.42 3-.9 4.45-1.46 1.28-.5 2.51-1.05 3.64-1.67 1.05-.57 2.01-1.19 2.83-1.84.82-.66 1.44-1.54 1.92-2.48l.01-.02c.49-.96.84-1.98 1.18-2.93l.33-.95.2-.54c.42-1.16 1-2.74 1.71-4.22.72-1.51 1.58-2.92 2.57-3.68.36-.28.82-.4 1.25-.33.43.05.83.27 1.13.65.28.36.4.82.33 1.25-.05.43-.27.84-.65 1.12-.58.45-1.19 1.53-1.74 2.74-.56 1.25-1.07 2.63-1.44 3.65-.19.47-.35.97-.52 1.44-.41 1.16-.84 2.41-1.48 3.6-.65 1.22-1.5 2.39-2.71 3.36-.97.77-2.07 1.49-3.26 2.13-1.28.7-2.67 1.32-4.1 1.88-.31.13-.65.24-.98.37l-.73.24c.01.42.01.83-.01 1.25-.02.5-.05.99-.09 1.49-.06.68-.16 1.34-.28 2.01-.13.67-.27 1.32-.44 1.97-.13.45-.42.81-.79 1.03-.38.22-.83.29-1.28.17-.45-.13-.81-.42-1.03-.79s-.29-.83-.17-1.28v-.01c.16-.57.28-1.14.39-1.71.1-.57.19-1.14.24-1.71.03-.3.05-.6.06-.91l.02-.49c-.73.2-1.46.38-2.17.53-.88.2-1.76.38-2.61.53-1.76.31-3.47.51-5.06.55-1.54.04-2.97-.04-4.25-.28-1.02-.19-1.96-.48-2.78-.87-.8-.39-1.51-.87-2.09-1.46a6.138 6.138 0 0 1-1.44-2.3c-.29-.84-.41-1.79-.34-2.84.05-.75.2-1.55.45-2.42.24-.8.56-1.67.99-2.56-.09-.46-.18-.93-.26-1.4-.08-.5-.17-1.02-.23-1.56-.08-.6-.15-1.21-.2-1.8-.05-.59-.08-1.2-.11-1.82 0-.06-.02-.14-.03-.21-.1-1.1-.17-2.2-.2-3.28-.04-1.08-.05-2.18-.06-3.27v-.3c-1.06-.06-2.19-.09-3.23-.19-.45-.02-.89-.09-1.28-.22-.42-.12-.81-.31-1.16-.54a5.15 5.15 0 0 1-.91-.78A4.813 4.813 0 0 1 .1 73.19c-.07-.36-.11-.79-.1-1.22.01-.62.13-1.29.35-1.98.22-.64.53-1.29.95-1.96l3.62-7.4c.89-1.8 1.32-2.82 1.53-3.62.2-.78.18-1.36.14-2.29v-.01c-.03-.85-.08-1.96-.02-3.61.03-.99.1-1.96.22-2.89.11-.94.28-1.85.5-2.75.16-.65.34-1.27.55-1.9.18-.51.38-1.01.59-1.49L2.04 39.3c-.43-.19-.74-.53-.9-.93-.16-.41-.17-.86.02-1.29l.08-.18c.03-.05.06-.1.09-.16v-.01c7.4-10.1 15.28-16.78 23.1-20.7 8.88-4.47 17.71-5.4 25.75-3.81.34.07.71.15 1.07.23.34.07.7.17 1.06.26.15.04.24.17.25.31v2.83a.322.322 0 0 1-.43.3c-.41-.11-.83-.22-1.28-.33-.44-.1-.88-.2-1.31-.28-7.23-1.43-15.17-.6-23.21 3.34-7.05 3.46-14.19 9.32-20.99 18.16 2 .88 4.39 1.77 6.3 2.76 1.94.7 4.24.63 6.7.22 2.51-.43 5.18-1.24 7.78-2.03 1.92-.58 3.79-1.16 5.58-1.58 1.8-.43 3.54-.71 5.16-.7.1-.01.22-.01.33.01.1.01.22.04.32.07.45.14.79.46.98.84.2.39.24.84.09 1.29-.85 2.59-1.24 4.83-1.22 6.8.01 1.95.42 3.61 1.14 5.07.73 1.47 1.78 2.76 3.08 3.92 1.31 1.17 2.88 2.2 4.63 3.14.41.22.69.59.81 1.01.13.42.08.87-.14 1.28-.22.41-.59.69-1.01.81-.42.13-.88.08-1.28-.14-2.02-1.1-3.84-2.31-5.39-3.71-1.56-1.4-2.83-2.99-3.74-4.83-.81-1.66-1.32-3.5-1.46-5.57-.13-1.94.08-4.07.67-6.46-1.07.16-2.21.42-3.38.73-1.37.37-2.79.79-4.22 1.23-2.69.81-5.43 1.66-8.09 2.12-2.59.46-5.11.56-7.44-.02-.2.42-.38.84-.53 1.29-.19.53-.34 1.08-.48 1.63-.19.76-.32 1.56-.43 2.4-.1.83-.17 1.69-.2 2.56-.05 1.52-.01 2.56.02 3.36v.03c.05 1.25.08 2.04-.18 3.08-.22 1.06-.74 2.31-1.8 4.47l-3.67 7.56-.08.13c-.27.42-.47.81-.6 1.18-.14.39-.21.74-.21 1.05 0 .16.01.31.04.46.03.14.07.27.13.38.04.09.1.18.17.25l.01.02c.06.06.13.13.21.18.09.06.21.12.32.16.13.03.26.06.4.06 1.33-.01 2.92.17 4.28.25.06-.02.12-.03.19-.04.08-.01.17-.02.26-.02 1.25 0 2.78.21 4.05.33.46.04.86.26 1.15.59.28.33.44.77.4 1.23-.04.47-.26.88-.59 1.16-.33.28-.77.44-1.23.4-.67-.05-1.34-.08-2.01-.13v.06c.01.98.02 1.95.05 2.93l.15 2.73.02.55zm68.58-49.91c5.88-7.15 17.99-6.99 23.2.01l.84-.79c-5.83-9.27-18.18-9.61-24.93-.05l.89.83zm5.05-21.47c1.77 0 3.2 1.87 3.2 4.18s-1.43 4.18-3.2 4.18c-1.77 0-3.2-1.87-3.2-4.18 0-2.31 1.43-4.18 3.2-4.18zm13.8 0c1.77 0 3.2 1.87 3.2 4.18s-1.44 4.18-3.2 4.18c-1.77 0-3.2-1.87-3.2-4.18 0-2.31 1.43-4.18 3.2-4.18zM85.82 39.1a8.891 8.891 0 0 0 2.38 3.2c1.44 1.21 3.23 1.88 5.12 2.05 1.94.18 3.99-.18 5.9-1.02 1.72-.76 3.32-1.93 4.61-3.48.34-.41.85-.6 1.34-.56 2.62.17 2.43-.04 4.51-.57 5.58-1.4 9.65-10.44 10-15.77.14-2.12-.05-4.27-.56-6.29-.69-2.72-1.93-5.27-3.59-7.46-7.55-8-13.55-7.68-21.5-2.37-.49.37-1.11.42-1.63.17-5.52-2.4-10.33-2.97-14.36-1.58-4.02 1.37-7.38 4.73-10.04 10.19-.16.32-.41.56-.7.72-3.17 1.78-4.77 5.03-4.92 8.51-.08 2 .31 4.07 1.16 6.01a13.69 13.69 0 0 0 3.89 5.13c3.6 2.93 9.13 4.3 16.46 2.2.81-.22 1.62.19 1.93.92zm7.4 30.38c.66-1.09 1.7-1.83 2.84-2.14 1.19-.32 2.49-.2 3.63.46 1.15.66 1.93 1.72 2.25 2.91.32 1.19.2 2.49-.46 3.63s-1.72 1.93-2.91 2.25a4.8 4.8 0 0 1-3.53-.39.846.846 0 0 1-.22-.13 4.792 4.792 0 0 1-2.14-2.84c-.31-1.14-.21-2.41.4-3.53.05-.07.09-.14.14-.22zm3.54.42c-.52.15-.99.49-1.28 1v.01c-.29.51-.35 1.1-.21 1.63.15.52.49.99.99 1.28h.01c.51.29 1.1.35 1.62.21.52-.15 1-.49 1.29-1 .29-.51.35-1.1.21-1.63-.15-.52-.49-1-1-1.29a2.19 2.19 0 0 0-1.63-.21zm-.29-17.7c.04-.08.08-.17.13-.24a7.635 7.635 0 0 1 4.57-3.48c1.85-.51 3.89-.32 5.71.67.08.04.17.08.24.13a7.597 7.597 0 0 1 3.48 4.57 7.658 7.658 0 0 1-5.37 9.42 7.663 7.663 0 0 1-9.42-5.37c-.52-1.85-.33-3.89.66-5.7zm5.52-.73a4.561 4.561 0 0 0-2.76 2.13v.01c-.63 1.1-.75 2.35-.44 3.48a4.558 4.558 0 0 0 2.15 2.76 4.578 4.578 0 0 0 6.24-1.7c.63-1.1.75-2.35.44-3.48a4.561 4.561 0 0 0-2.13-2.76h-.01a4.584 4.584 0 0 0-3.49-.44zm-15.81-6.76c-1.03-.85-1.93-1.92-2.65-3.17-7.85 1.92-13.93.23-18.06-3.12a17.006 17.006 0 0 1-4.8-6.31c-1.04-2.37-1.52-4.93-1.42-7.39.19-4.38 2.19-8.5 6.13-10.9 3.02-6.01 6.91-9.76 11.64-11.38 4.6-1.57 9.89-1.08 15.83 1.35 9.48-5.77 17.13-5.21 25.17 3.51a23.75 23.75 0 0 1 4.14 8.6c.59 2.33.81 4.8.65 7.26-.45 6.73-5.38 16.85-12.38 18.62-2.18.55-2.07.8-4.73.7a16.2 16.2 0 0 1-5.23 3.74c-2.4 1.06-4.99 1.49-7.46 1.27-2.5-.24-4.89-1.16-6.83-2.78zm-1.72 9.59c.18 6.77-1.45 12.36-5.32 18.69-3.5 5.72-8.82 11-16.3 15.38-.1.06-.21.1-.31.15l-.05.01c.01.99.04 1.97.1 2.94.06 1.04.16 2.07.28 3.09.24 1.99.59 3.92 1.05 5.78s1.02 3.67 1.68 5.42c.17.44.13.9-.04 1.29s-.51.72-.95.88c-.44.17-.89.14-1.29-.04-.4-.18-.72-.51-.88-.95-.71-1.88-1.31-3.81-1.8-5.81-.49-2-.88-4.05-1.13-6.17-.26-2.1-.4-4.28-.41-6.53-.01-2.25.1-4.56.34-6.95.05-.47.28-.86.61-1.13s.77-.42 1.24-.38h.01c.46.05.85.28 1.13.61.27.33.42.77.38 1.24-.05.55-.1 1.11-.15 1.69l-.07 1.05c6.32-3.97 10.85-8.65 13.84-13.67 3.39-5.7 4.82-10.57 4.65-16.62 0-.18.14-.33.31-.33h2.74c.18 0 .32.15.32.32l.02.04zm-29.89 9.59c.08.46-.03.91-.27 1.26-.25.35-.63.62-1.08.7-.46.08-.91-.03-1.26-.27a1.75 1.75 0 0 1-.7-1.08c-.08-.48-.11-.94-.1-1.39.02-.47.09-.92.22-1.34a6.115 6.115 0 0 1 1.95-2.99c.44-.38.94-.7 1.47-.95s1.09-.43 1.68-.54c.5-.09 1.01-.13 1.52-.1.5.02 1 .1 1.5.24 1.35.38 2.33.93 3 1.59.69.69 1.05 1.5 1.18 2.42.11.78.01 1.59-.22 2.43-.22.81-.57 1.65-.98 2.5-.35.74-1.2 2.51-2.3 4.54-1.09 2.03-2.45 4.3-3.79 6.03-1.94 2.5-3.87 4.19-5.45 3.92-1.59-.26-2.75-2.47-3.04-7.76v-.01c-.02-.46.15-.9.44-1.21l.02-.02c.29-.31.7-.51 1.15-.53h.03c.45-.01.87.16 1.19.44.32.29.53.7.55 1.17v.02c.11 2.04.44 2.93.86 3.08.39.15.96-.38 1.57-1.18 1.23-1.58 2.48-3.72 3.52-5.62 1.03-1.92 1.85-3.61 2.19-4.32.29-.61.55-1.21.71-1.73.16-.5.23-.94.19-1.29-.03-.21-.16-.42-.4-.6-.28-.22-.72-.43-1.35-.6-.25-.07-.5-.11-.74-.13-.26-.01-.51.01-.76.05-.29.05-.58.15-.84.27-.26.13-.51.28-.74.47-.21.18-.4.39-.54.61-.15.22-.25.45-.32.71a2.9 2.9 0 0 0-.09.59c-.03.2-.01.41.03.62z"/></svg>