<svg version="1.1" id="Layer_1" xmlns="http://www.w3.org/2000/svg" x="0" y="0" viewBox="0 0 500 500" style="enable-background:new 0 0 500 500" xml:space="preserve"><style>.st0{fill:#83e1e5}.st1{fill:#aab1ba}.st2{fill:#fddf7f}</style><ellipse class="st2" cx="250" cy="200.874" rx="105.703" ry="105.928"/><path class="st0" d="M324.495 291.611h-19.927c-15.929 9.641-34.601 15.191-54.567 15.191s-38.638-5.551-54.567-15.191h-19.927c-28.71 0-51.984 23.324-51.984 52.095v64.891c0 9.528 7.723 17.253 17.25 17.253H359.232c9.527 0 17.25-7.724 17.25-17.253v-64.891c-.003-28.771-23.277-52.095-51.987-52.095zM144.297 425.851h211.406V495H144.297z"/><path class="st2" d="M327.328 363.157v19.21H172.476v-19.21H123.52v45.441c0 9.528 7.723 17.253 17.25 17.253h218.458c9.527 0 17.25-7.725 17.25-17.253v-45.441h-49.15z"/><path class="st1" d="M297.903 324.813h-18.379c-16.306 0-29.524 13.218-29.524 29.524 0-16.305-13.218-29.524-29.524-29.524h-18.379c-16.305 0-29.523 13.218-29.523 29.524v28.03h154.852v-28.03c0-16.305-13.218-29.524-29.523-29.524zM172.574 425.851h154.852V495H172.574z"/><path class="st2" d="M250 462.781h-77.426V495h154.852v-32.219z"/><path d="M95.452 250a5 5 0 0 1 5-5h6.534v-6.534a5 5 0 1 1 10 0V245h6.534a5 5 0 1 1 0 10h-6.534v6.534a5 5 0 1 1-10 0V255h-6.534a5 5 0 0 1-5-5zm281.027-5a5 5 0 1 0 0 10h6.534v6.534a5 5 0 1 0 10 0V255h6.534a5 5 0 1 0 0-10h-6.534v-6.534a5 5 0 1 0-10 0V245h-6.534zm-148.767-46.455a5 5 0 1 0-7.843-6.203c-2.09 2.643-5.218 4.158-8.581 4.158s-6.491-1.516-8.581-4.158a5 5 0 0 0-7.843 6.203c3.999 5.055 9.985 7.955 16.425 7.955s12.424-2.899 16.423-7.955zm57.639 7.955c6.439 0 12.426-2.899 16.425-7.955a5 5 0 1 0-7.843-6.203c-2.09 2.643-5.218 4.158-8.581 4.158s-6.491-1.516-8.581-4.158a5 5 0 0 0-7.843 6.203c3.997 5.056 9.983 7.955 16.423 7.955zM440.835 490h-3.813a5 5 0 1 0 0 10h3.813a5 5 0 1 0 0-10zm-20.973 0H80.138a5 5 0 1 0 0 10h339.725a5 5 0 1 0-.001-10zm-356.884 0h-3.813a5 5 0 1 0 0 10h3.813a5 5 0 1 0 0-10zm95.71-474.61a5 5 0 0 0 5-5V5a5 5 0 1 0-10 0v5.39a5 5 0 0 0 5 5zm0 92.527a5 5 0 0 0 5-5V29.442a5 5 0 1 0-10 0v73.475a5 5 0 0 0 5 5zm30.437-92.527a5 5 0 0 0 5-5V5a5 5 0 1 0-10 0v5.39a5 5 0 0 0 5 5zm0 78.581a5 5 0 0 0 5-5v-59.53a5 5 0 1 0-10 0v59.53a5 5 0 0 0 5 5zM128.251 15.39a5 5 0 0 0 5-5V5a5 5 0 1 0-10 0v5.39a5 5 0 0 0 5 5zm0 114.08a5 5 0 0 0 5-5V29.442a5 5 0 1 0-10 0v95.028a5 5 0 0 0 5 5zM371.749 15.39a5 5 0 0 0 5-5V5a5 5 0 1 0-10 0v5.39a5 5 0 0 0 5 5zm0 114.08a5 5 0 0 0 5-5V29.442a5 5 0 1 0-10 0v95.028a5 5 0 0 0 5 5zM310.875 15.39a5 5 0 0 0 5-5V5a5 5 0 1 0-10 0v5.39a5 5 0 0 0 5 5zm0 78.581a5 5 0 0 0 5-5v-59.53a5 5 0 1 0-10 0v59.53a5 5 0 0 0 5 5zm30.437-78.581a5 5 0 0 0 5-5V5a5 5 0 1 0-10 0v5.39a5 5 0 0 0 5 5zm0 92.527a5 5 0 0 0 5-5V29.442a5 5 0 1 0-10 0v73.475a5 5 0 0 0 5 5zM175.506 286.611h4.329c-24.734-20.361-40.538-51.233-40.538-85.737 0-27.798 10.309-54.392 29.028-74.881 18.573-20.33 43.815-32.95 71.087-35.545l.408-.059a4.81 4.81 0 0 1 .269-.031c4.887-.433 9.411-2.849 12.412-6.629 4.974-6.265 5.124-15.131.367-21.562l-3.436-4.644a5 5 0 0 1 8.039-5.947l3.436 4.644c7.441 10.059 7.205 23.927-.574 33.726-4.669 5.882-11.668 9.652-19.222 10.359l-.399.057a6.34 6.34 0 0 1-.241.029c-51.978 4.886-91.174 48.084-91.174 100.482 0 43.402 27.478 80.491 65.913 94.717l.303.113a96.673 96.673 0 0 0 2.976 1.032c.524.173 1.046.348 1.574.513.873.272 1.749.532 2.628.78.31.087.622.169.933.253a97.44 97.44 0 0 0 2.99.766c2.049.489 4.114.916 6.194 1.276l.421.07c.934.157 1.871.302 2.811.433.159.022.318.046.477.067 2.106.284 4.223.5 6.349.651.243.017.488.031.731.047.812.052 1.625.093 2.439.125.282.011.563.024.846.032 1.038.032 2.078.053 3.119.053s2.081-.021 3.119-.053c.282-.009.564-.021.846-.032a99.032 99.032 0 0 0 2.439-.125c.244-.015.488-.03.732-.047 2.126-.15 4.244-.367 6.349-.651.159-.021.318-.045.477-.067a98.795 98.795 0 0 0 2.811-.433l.421-.07a100.868 100.868 0 0 0 6.982-1.469c.736-.182 1.47-.374 2.202-.573.311-.084.623-.166.933-.253.88-.248 1.756-.508 2.628-.78.528-.165 1.051-.34 1.575-.514a93.496 93.496 0 0 0 2.976-1.032l.301-.112c38.436-14.225 65.914-51.315 65.914-94.718 0-44.702-29.894-84.579-72.694-96.974a5 5 0 0 1 2.781-9.606c22.589 6.542 42.927 20.514 57.267 39.343 14.815 19.454 22.646 42.703 22.646 67.236 0 34.503-15.804 65.376-40.538 85.737h4.329c31.422 0 56.985 25.613 56.985 57.095V408.6c0 11.773-9.193 21.434-20.776 22.196v51.418a5 5 0 1 1-10 0v-51.363h-18.277v48.04a5 5 0 1 1-10 0v-11.109H255v11.109a5 5 0 1 1-10 0v-11.109h-67.426v11.109a5 5 0 1 1-10 0v-48.04h-18.277v48.04a5 5 0 1 1-10 0v-48.095c-11.584-.763-20.776-10.424-20.776-22.198v-64.891c0-31.483 25.563-57.096 56.985-57.096zM245 457.781V430.85h-67.426v26.931H245zm77.426-26.93H255v26.931h67.426v-26.931zm49.053-22.251v-40.443h-39.054v14.21a5 5 0 0 1-5 5h-154.95a5 5 0 0 1-5-5v-14.21H128.52v40.441c0 6.756 5.497 12.253 12.253 12.253h218.456c6.755-.001 12.25-5.496 12.25-12.251zM255 377.367h67.328v-25.152c-1.08-12.532-11.618-22.402-24.426-22.402h-18.379c-13.522 0-24.523 11.001-24.523 24.524v23.03zm-10-23.03c0-13.522-11.001-24.524-24.523-24.524h-18.379c-13.522 0-24.523 11.001-24.523 24.524v23.03H245v-23.03zm-33.252-49.364a109.936 109.936 0 0 1-17.693-8.362h-18.549c-25.908 0-46.985 21.127-46.985 47.095v14.451h38.955v-39.404a5 5 0 1 1 10 0v11.417c6.269-6.385 14.989-10.356 24.622-10.356h18.379c12.496 0 23.463 6.674 29.523 16.645 6.061-9.971 17.027-16.645 29.523-16.645h18.379c9.531 0 18.172 3.883 24.426 10.15v-11.211a5 5 0 1 1 10 0v33.12c.058.815.098 1.635.098 2.464v3.82h39.054v-14.451c0-25.969-21.077-47.095-46.985-47.095h-18.549a109.891 109.891 0 0 1-17.693 8.362c-.23.085-.462.168-.693.251-.685.247-1.37.495-2.06.729-.886.301-1.778.591-2.674.871-.378.117-.759.227-1.138.34a104.545 104.545 0 0 1-5.859 1.582c-.156.037-.31.078-.466.114-1.142.269-2.29.521-3.445.754l-.051.01c-1.1.222-2.207.423-3.318.612l-.517.086a112.62 112.62 0 0 1-3.149.474c-.095.013-.19.028-.286.04-1.181.156-2.368.297-3.56.416l-.012.001a112.002 112.002 0 0 1-6.735.458c-.308.012-.616.026-.924.035-1.119.034-2.24.056-3.367.056s-2.248-.022-3.367-.056c-.308-.009-.616-.023-.924-.035a110.07 110.07 0 0 1-2.581-.129l-.854-.054a112.002 112.002 0 0 1-3.3-.275l-.012-.001a109.752 109.752 0 0 1-3.56-.416l-.286-.04a112.62 112.62 0 0 1-3.149-.474l-.517-.086a110.16 110.16 0 0 1-3.318-.612l-.051-.01a109.252 109.252 0 0 1-3.445-.754c-.156-.037-.31-.077-.466-.114a109.33 109.33 0 0 1-5.859-1.582c-.38-.114-.76-.223-1.138-.34-.896-.28-1.788-.57-2.674-.871-.69-.234-1.375-.481-2.06-.729l-.69-.251zm12.051-29.589a4.988 4.988 0 0 0 3.775-1.72c5.638-6.487 13.789-10.242 22.292-10.305a29.93 29.93 0 0 1 22.362 10.305 5 5 0 0 0 7.549-6.56 39.974 39.974 0 0 0-29.911-13.745 39.944 39.944 0 0 0-29.839 13.744 5 5 0 0 0 3.772 8.281zm-7.512-56.413a5 5 0 1 0-10 0v4.532a5 5 0 1 0 10 0v-4.532zm-5 14.899a5 5 0 0 0-5 5v4.532a5 5 0 1 0 10 0v-4.532a5 5 0 0 0-5-5zm79.064-14.899a5 5 0 1 0-10 0v4.532a5 5 0 1 0 10 0v-4.532zm-5 29.431a5 5 0 0 0 5-5v-4.532a5 5 0 1 0-10 0v4.532a5 5 0 0 0 5 5z" style="fill:#1c1d21"/></svg>