<svg version="1.1" id="Layer_1" xmlns="http://www.w3.org/2000/svg" x="0" y="0" viewBox="0 0 500 500" style="enable-background:new 0 0 500 500" xml:space="preserve"><style>.st0{fill:#83e1e5}</style><path d="M298.918 41.448c-2.404 0-4.758.212-7.052.598C289.328 21.173 271.558 5 250 5c-21.559 0-39.328 16.173-41.867 37.047a42.35 42.35 0 0 0-7.052-.598c-23.301 0-42.19 18.889-42.19 42.19s18.889 42.19 42.19 42.19h97.837c23.301 0 42.19-18.889 42.19-42.19 0-23.302-18.889-42.191-42.19-42.191z" style="fill:#aab1ba"/><path class="st0" d="m351.134 472.293-38.14-116.454c-16.919 14.55-38.929 23.346-62.994 23.346s-46.074-8.796-62.994-23.346l-38.14 116.454A32.967 32.967 0 0 1 117.536 495h264.928a32.967 32.967 0 0 1-31.33-22.707z"/><path d="m380.77 375.292-16.829-38.793a40.49 40.49 0 0 1-3.345-16.113V290.81a61.567 61.567 0 0 0-4.928-24.137l-15.184-35.637a13.888 13.888 0 0 0-12.776-8.443h-1.853c-17.705-22.381-45.102-36.744-75.855-36.744s-58.15 14.363-75.855 36.744h-1.853a13.888 13.888 0 0 0-12.776 8.443l-15.184 35.637a61.574 61.574 0 0 0-4.928 24.137v29.575a40.472 40.472 0 0 1-3.345 16.113l-16.829 38.793H84.532v87.644l.021-.038C85.002 479.93 98.856 495 117.536 495a32.967 32.967 0 0 0 31.33-22.707l38.14-116.454c16.919 14.55 38.929 23.346 62.994 23.346s46.074-8.796 62.994-23.346l38.14 116.454A32.967 32.967 0 0 0 382.464 495c18.68 0 32.534-15.07 32.983-32.102l.021.038v-87.644H380.77z" style="fill:#fddf7f"/><path class="st0" d="M139.404 299.226h-6.64c-26.638 0-48.232 21.594-48.232 48.232v27.834h34.697l16.829-38.793a40.335 40.335 0 0 0 2.499-7.885c.56-2.7.845-5.457.845-8.229l.002-21.159zM367.236 299.226h-6.64v21.159a40.519 40.519 0 0 0 3.344 16.114l16.829 38.793h34.697v-27.834c.002-26.638-21.592-48.232-48.23-48.232z"/><path d="M227.115 352.529c5.572-7.044 13.914-11.084 22.885-11.084s17.313 4.04 22.885 11.084a5 5 0 0 1-7.843 6.204c-3.664-4.632-9.147-7.288-15.042-7.288s-11.378 2.656-15.042 7.288a4.998 4.998 0 0 1-7.023.819 4.999 4.999 0 0 1-.82-7.023zM52.15 490h-3.813a5 5 0 0 0 0 10h3.813a5 5 0 0 0 0-10zm383.54 5a5 5 0 0 1-5 5h-90.144a5 5 0 0 1 0-10h16.213a37.935 37.935 0 0 1-10.377-16.15l-35.907-109.636A101.66 101.66 0 0 1 250 384.185a101.665 101.665 0 0 1-60.475-19.971L153.618 473.85A37.935 37.935 0 0 1 143.241 490h16.213a5 5 0 0 1 0 10H69.31a5 5 0 0 1 0-10h22.423c-7.149-6.583-11.74-15.905-12.161-26.428a4.947 4.947 0 0 1-.041-.636v-87.644c0-.071.018-.136.021-.207l-.021-27.624c0-29.355 23.879-53.235 53.231-53.235h1.64v-3.416a66.206 66.206 0 0 1 5.328-26.097l15.185-35.637a18.852 18.852 0 0 1 16.869-11.465c8.083-9.738 17.752-17.811 28.816-23.974a5 5 0 0 1 4.866 8.736 91.505 91.505 0 0 0-20.188 15.219h9.267a21.488 21.488 0 0 1 17.971 9.664 21.49 21.49 0 0 1 1.847 20.321l-8.972 21.055a56.276 56.276 0 0 0-4.528 22.177v23.516a95.46 95.46 0 0 1-4.75 29.763l-3.299 10.073a91.67 91.67 0 0 0 114.367 0l-3.299-10.073a95.484 95.484 0 0 1-4.75-29.763V290.81a56.255 56.255 0 0 0-4.528-22.177l-8.971-21.055a21.489 21.489 0 0 1 1.846-20.321 21.49 21.49 0 0 1 17.971-9.664h9.267a91.487 91.487 0 0 0-20.189-15.219 5 5 0 0 1 4.866-8.736c11.065 6.163 20.735 14.236 28.817 23.975a18.85 18.85 0 0 1 16.87 11.465l15.184 35.637a66.206 66.206 0 0 1 5.328 26.097v3.416h1.64c29.352 0 53.231 23.88 53.231 53.231V462.937c0 .216-.014.43-.041.64-.422 10.521-5.012 19.842-12.16 26.424h22.424A5 5 0 0 1 435.69 495zM89.532 347.458l.017 22.834h26.399l15.523-35.783a35.289 35.289 0 0 0 2.932-14.124v-16.159h-1.64c-23.837 0-43.231 19.394-43.231 43.232zm92.721 6.831.001-.006 4.358-13.306a85.485 85.485 0 0 0 4.252-26.65V290.81a66.2 66.2 0 0 1 5.329-26.097l8.971-21.055c1.546-3.629 1.185-7.597-.99-10.888-2.175-3.291-5.684-5.178-9.628-5.178h-22.254a8.873 8.873 0 0 0-8.176 5.403l-15.185 35.637a56.275 56.275 0 0 0-4.527 22.177v29.575a45.218 45.218 0 0 1-3.758 18.103l-16.829 38.793-.001.002-15.595 35.948a5.002 5.002 0 0 1-6.576 2.597 5 5 0 0 1-2.597-6.577l12.564-28.96h-22.08v82.148c.01.108.017.217.019.327.403 15.273 12.695 27.235 27.985 27.235a27.91 27.91 0 0 0 26.579-19.263l38.138-116.448zm183.343-50.063v16.159c0 4.887.986 9.639 2.932 14.124l15.523 35.783h26.417v-22.834c0-23.838-19.394-43.231-43.231-43.231h-1.641zM382.464 490c15.291 0 27.583-11.962 27.985-27.233.002-.11.009-.219.019-.328v-82.147h-22.073l12.564 28.96a5 5 0 1 1-9.173 3.98l-15.571-35.893c-.009-.02-.021-.037-.03-.057l-16.829-38.793a45.223 45.223 0 0 1-3.758-18.104V290.81a56.258 56.258 0 0 0-4.528-22.177l-15.184-35.637a8.875 8.875 0 0 0-8.176-5.403H305.455c-3.944 0-7.454 1.887-9.628 5.178-2.175 3.291-2.536 7.259-.989 10.888l8.971 21.055a66.204 66.204 0 0 1 5.329 26.097v23.516a85.51 85.51 0 0 0 4.252 26.65l4.358 13.306 38.14 116.455A27.903 27.903 0 0 0 382.464 490zm69.199 0h-3.813a5 5 0 0 0 0 10h3.813a5 5 0 0 0 0-10zM129.512 179.314h6.535v6.534a5 5 0 0 0 10 0v-6.534h6.534a5 5 0 0 0 0-10h-6.534v-6.535a5 5 0 0 0-10 0v6.535h-6.535a5 5 0 0 0 0 10zm212.907-5a5 5 0 0 0 5 5h6.534v6.534a5 5 0 0 0 10 0v-6.534h6.535a5 5 0 0 0 0-10h-6.535v-6.535a5 5 0 0 0-10 0v6.535h-6.534a5 5 0 0 0-5 5zM153.892 83.638c0-26.021 21.169-47.19 47.19-47.19.976 0 1.96.032 2.947.095C208.897 15.397 227.854 0 250 0s41.103 15.397 45.971 36.543a46.295 46.295 0 0 1 2.947-.095c26.021 0 47.19 21.169 47.19 47.19 0 26.021-21.169 47.19-47.19 47.19h-97.837c-26.02 0-47.189-21.169-47.189-47.19zm10 0c0 20.507 16.683 37.19 37.19 37.19h97.837c20.507 0 37.19-16.683 37.19-37.19s-16.683-37.19-37.19-37.19a37.6 37.6 0 0 0-6.222.529 4.999 4.999 0 0 1-5.793-4.327C284.64 24.037 268.774 10 250 10s-34.64 14.037-36.903 32.65a4.999 4.999 0 0 1-5.793 4.327 37.59 37.59 0 0 0-6.222-.529c-20.507 0-37.19 16.684-37.19 37.19zM250 179.677a5 5 0 0 0-5 5v5.39a5 5 0 0 0 10 0v-5.39a5 5 0 0 0-5-5zm-.001-41.682a5 5 0 0 0-5 5v22.629a5 5 0 0 0 10 0v-22.629a5 5 0 0 0-5-5zm-28.38 57.072a5 5 0 0 0 5-5v-5.39a5 5 0 0 0-10 0v5.39a5 5 0 0 0 5 5zm-.001-24.442a5 5 0 0 0 5-5v-22.629a5 5 0 0 0-10 0v22.629a5 5 0 0 0 5 5zm56.763 24.442a5 5 0 0 0 5-5v-5.39a5 5 0 0 0-10 0v5.39a5 5 0 0 0 5 5zm-.001-24.442a5 5 0 0 0 5-5v-22.629a5 5 0 0 0-10 0v22.629a5 5 0 0 0 5 5z" style="fill:#1c1d21"/></svg>