<svg xmlns="http://www.w3.org/2000/svg" viewBox="0 0 64 64" style="enable-background:new 0 0 64 64" xml:space="preserve"><path d="M36 39.586v-1.229c-1.269.411-2.612.643-4 .643s-2.731-.232-4-.643v1.229l4 4 4-4zM39.237 41.747l-1.958-.612-3.757 3.757 2.259 1.694zM24.763 41.747l3.456 4.839 2.259-1.694-3.757-3.757zM42.817 28.217c.2-.973.235-2.057.109-3.314l-.539-5.375-.462.92a.996.996 0 0 1-1.517.333l-4.053-3.231-1.454 2.897a1.003 1.003 0 0 1-1.447.385l-4.842-3.217-.659 2.627a.999.999 0 0 1-1.523.589l-4.639-3.082-.717 7.151c-.126 1.258-.091 2.342.109 3.314C22.228 33.306 26.777 37 32 37s9.772-3.694 10.817-8.783zM26 23h2v3h-2v-3zm8 11c0-1.103-.897-2-2-2s-2 .897-2 2h-2c0-2.206 1.794-4 4-4s4 1.794 4 4h-2zm4-8h-2v-3h2v3z"/><path d="M18.628 21.038c.124-.012.244-.038.372-.038h.455l.512-5.1a1 1 0 0 1 1.548-.733l4.842 3.217.659-2.627a.999.999 0 0 1 1.523-.589l5.08 3.375 1.5-2.99a.996.996 0 0 1 1.517-.333l4.053 3.231 1.454-2.897a.999.999 0 0 1 1.889.349l.512 5.1H45c.128 0 .248.026.372.038l.57-5.592a11.107 11.107 0 0 0-1.161-6.181C42.812 5.401 38.846 3 34.433 3h-4.865c-4.413 0-8.379 2.401-10.35 6.265a11.105 11.105 0 0 0-1.16 6.181l.57 5.592zM33.757 47.567 32 46.25l-1.757 1.317.478 1.433h2.558zM30.299 54.287l2.916-2.916-.062-.371h-2.306zM33.619 53.795l-3.885 3.885-.435 2.607 4.63-4.63zM31.414 61h3.406l-.487-2.919zM28 49a1.001 1.001 0 0 1-.814-.419l-4.433-6.206-6.543 2.044A5.974 5.974 0 0 0 12 50.146V61h5v-7h2v7h8.153l1.82-10.919-.419-1.257A1 1 0 0 1 28 49zM47.79 44.419l-6.543-2.044-4.433 6.206A1.001 1.001 0 0 1 36 49a1 1 0 0 1-.554-.176l-.419 1.257L36.847 61H45v-7h2v7h5V50.146a5.974 5.974 0 0 0-4.21-5.727zM44.746 23l.171 1.704c.082.819.097 1.577.058 2.296H45c1.103 0 2-.897 2-2s-.897-2-2-2h-.254zM19 27h.025a14.867 14.867 0 0 1 .058-2.297L19.254 23H19c-1.103 0-2 .897-2 2s.897 2 2 2zM57.287 15.127l2.42-2.42-1.414-1.414-3 3a1 1 0 0 0-.125 1.262l1.545 2.318-3.42 3.42 1.414 1.414 4-4a1 1 0 0 0 .125-1.262l-1.545-2.318zM8.832 15.555a1 1 0 0 0-.125-1.262l-3-3-1.414 1.414 2.42 2.42-1.545 2.318a1 1 0 0 0 .125 1.262l4 4 1.414-1.414-3.42-3.42 1.545-2.318z"/></svg>