<svg xmlns="http://www.w3.org/2000/svg" width="512" height="512" style="enable-background:new 0 0 512 512" xml:space="preserve"><path d="M417.87 243.501h-96a4.505 4.505 0 0 0-4.5 4.5v11c0 2.481 2.019 4.5 4.5 4.5h96c2.481 0 4.5-2.019 4.5-4.5v-11c0-2.481-2.018-4.5-4.5-4.5zM312.086 318.501h115.568l-17.857-25h-79.854zM332.37 273.501h75v10h-75zM294.278 154.27l45.843-45.842-17.678-17.678-45.842 45.843 17.677 17.677zM127.989 320.56l-17.678-17.678-7.071 7.071 5.726 5.726-67.872 67.872a4.998 4.998 0 0 0 3.536 8.535c1.28 0 2.559-.488 3.536-1.465l67.871-67.872 4.881 4.881 7.071-7.07zM307.37 428.501v8.75c0 8.96 7.29 16.25 16.25 16.25h92.5c8.96 0 16.25-7.29 16.25-16.25v-8.75h-125zM255.682 129.815c-6.024-6.024-15.775-6.026-21.801 0L103.534 260.161c-6.011 6.011-6.011 15.791 0 21.802l45.374 45.374c6.025 6.024 15.775 6.024 21.801 0l10.313-10.313-21.213-21.213a5 5 0 1 1 7.071-7.07l21.213 21.213 7.071-7.071-14.142-14.143a5 5 0 0 1 7.071-7.07l14.142 14.143 7.072-7.072-21.214-21.213a5 5 0 1 1 7.071-7.07l21.213 21.213 7.071-7.071-14.143-14.143a5 5 0 1 1 7.071-7.07l14.142 14.142 7.071-7.071-21.214-21.213a5 5 0 1 1 7.071-7.071l21.213 21.214 7.071-7.071-14.143-14.142a5 5 0 1 1 7.071-7.071l14.143 14.142 42.252-42.252c6.01-6.01 6.01-15.791 0-21.801-10.398-10.403-33.134-33.14-45.371-45.378zm-35.769 49.323-77.782 77.781a5 5 0 0 1-7.071 0 5 5 0 0 1 0-7.071l77.782-77.781a5.001 5.001 0 0 1 7.071 7.071zM92.37 173.501c16.542 0 30-13.458 30-30s-13.458-30-30-30-30 13.458-30 30 13.458 30 30 30zM427.37 138.501c-8.271 0-15 6.729-15 15s6.729 15 15 15 15-6.729 15-15-6.728-15-15-15zM307.37 418.501h25v-60a5 5 0 0 1 5-5h65a5 5 0 0 1 5 5v60h25v-90h-125v90zM359.566 113.73a7.452 7.452 0 0 0 5.304 2.197c4.145 0 7.5-3.354 7.5-7.5 0-2.003-.78-3.887-2.196-5.303l-42.427-42.426a7.497 7.497 0 0 0-10.607 0c-2.924 2.924-2.924 7.682.001 10.607l42.425 42.425z"/><path d="M342.37 363.501h55v55h-55z"/><circle cx="204.87" cy="66.001" r="7.5"/><circle cx="64.87" cy="246.001" r="7.5"/><circle cx="419.87" cy="71.001" r="7.5"/><circle cx="464.87" cy="241.001" r="7.5"/><circle cx="254.87" cy="431.001" r="7.5"/><circle cx="129.87" cy="416.001" r="7.5"/></svg>